<svg width="12" height="19" viewBox="0 0 12 19" fill="none" xmlns="http://www.w3.org/2000/svg">
	<path d="M1.11719 8.83594L8.69531 1.25781C8.8776 1.07552 9.09896 0.984375 9.35938 0.984375C9.61979 0.984375 9.84115 1.07552 10.0234 1.25781L10.8828 2.11719C11.0651 2.29948 11.1562 2.52083 11.1562 2.78125C11.1823 3.04167 11.1042 3.26302 10.9219 3.44531L4.86719 9.5L10.9219 15.5547C11.1042 15.737 11.1823 15.9583 11.1562 16.2188C11.1562 16.4792 11.0651 16.7005 10.8828 16.8828L10.0234 17.7422C9.84115 17.9245 9.61979 18.0156 9.35938 18.0156C9.09896 18.0156 8.8776 17.9245 8.69531 17.7422L1.11719 10.1641C0.908854 9.98177 0.804688 9.76042 0.804688 9.5C0.804688 9.23958 0.908854 9.01823 1.11719 8.83594Z" fill="#F9F9F9"/>
</svg>
