<svg width="263" height="99" viewBox="0 0 263 99" fill="none" xmlns="http://www.w3.org/2000/svg">
	<path d="M0.390145 75.7953C0.0101451 75.5453 -0.129855 75.0153 0.140145 74.6053L5.93014 65.7953C8.86014 61.3353 14.3401 59.6753 18.3101 62.2853C21.2201 64.2053 21.6201 68.2053 21.4001 70.6053C23.5501 69.1453 27.4201 67.3053 30.9001 69.5953C35.1401 72.3753 35.7401 78.1353 32.7801 82.6353L26.6101 92.0153C26.3401 92.4353 25.8001 92.5053 25.4201 92.2653L0.390145 75.7953ZM16.2301 73.5353C17.1701 72.0953 16.7601 70.0953 15.2501 69.0953C13.7401 68.1053 11.8801 68.6153 10.9401 70.0553L9.00014 73.0053L14.2901 76.4853L16.2301 73.5353ZM26.8701 79.8353C27.8401 78.3653 27.4501 76.3153 25.9001 75.2953C24.3901 74.2953 22.1801 75.1753 21.2101 76.6553L19.2001 79.7153L24.6101 83.2653L26.8701 79.8353Z" fill="#120D73"/>
	<path d="M21.3201 47.7053C21.0001 47.3853 20.9901 46.8153 21.3101 46.4853L25.1001 42.5953C25.4201 42.2753 25.9901 42.2653 26.3201 42.5853L47.7601 63.5153C48.0801 63.8353 48.0901 64.4053 47.7701 64.7353L43.9801 68.6253C43.6601 68.9453 43.0901 68.9553 42.7601 68.6353L21.3201 47.7053Z" fill="#120D73"/>
	<path d="M49.7001 56.9953L50.3701 52.7253C50.4701 52.2553 50.8401 51.9253 51.3501 51.9953C52.1101 52.1053 52.7901 52.1153 53.7701 51.3853C54.7901 50.6353 55.2201 48.8453 53.8701 47.0353L41.1901 29.9053C40.9201 29.5453 40.9701 28.9953 41.3701 28.7053L45.8101 25.4153C46.2101 25.1153 46.7401 25.2353 47.0101 25.5953L59.7201 42.7653C63.4601 47.8253 62.0501 53.3753 57.8001 56.5253C54.6301 58.8653 51.4901 58.2653 50.3001 57.9653C49.9101 57.8053 49.6701 57.4153 49.7001 56.9953Z" fill="#120D73"/>
	<path d="M59.5502 16.8754C59.3702 16.4554 59.6102 15.9654 60.0202 15.7954L61.0602 15.3554L84.4702 24.2854L84.5102 24.2654L78.2401 9.47535C78.0601 9.05535 78.2401 8.54536 78.7001 8.34536L83.7001 6.22535C84.1201 6.04535 84.6502 6.26535 84.8302 6.68535L96.7402 34.7154C96.9202 35.1354 96.6801 35.6254 96.2701 35.8054L95.6002 36.0854C95.4802 36.1354 95.0902 36.1554 94.9702 36.1054L71.5002 26.5554L71.4602 26.5754L78.0601 42.1154C78.2401 42.5354 78.0601 43.0454 77.6001 43.2454L72.6402 45.3554C72.2202 45.5354 71.6902 45.3154 71.5102 44.8954L59.5502 16.8754Z" fill="#120D73"/>
	<path d="M100.55 32.6253L110.84 0.645335C110.94 0.355335 111.23 0.0953349 111.54 0.0553349L112 0.00533493C112.31 -0.0346651 112.66 0.155335 112.82 0.405335L130.64 28.8853C130.98 29.4353 130.7 30.0653 130.02 30.1453L125.03 30.7653C124.22 30.8653 123.83 30.6453 123.32 29.8353L121.26 26.4853L109.04 28.0053L107.87 31.7953C107.71 32.3653 107.29 32.9653 106.39 33.0753L101.45 33.6953C100.79 33.7753 100.36 33.2453 100.55 32.6253ZM117.81 20.7153L113.47 13.7253L113.43 13.7353L110.98 21.5653L117.81 20.7153Z" fill="#120D73"/>
	<path d="M169.22 3.95536C172.91 4.88536 176.56 7.43536 178.89 10.7754C179.21 11.1854 179.12 11.7154 178.68 11.9854L174.29 14.8054C173.86 15.0254 173.38 14.9054 173.09 14.5554C171.81 12.5954 170.02 11.5454 167.87 11.0054C163.08 9.80536 158.21 12.8754 156.99 17.7054C155.79 22.4954 158.7 27.4254 163.49 28.6254C164.76 28.9454 166.12 29.1054 167.57 28.9054L168.21 26.3554L165.44 25.6654C164.96 25.5454 164.69 25.1054 164.8 24.6654L165.89 20.3154C166.01 19.8354 166.45 19.5654 166.93 19.6954L175.75 21.9154C176.19 22.0254 176.44 22.5054 176.33 22.9454L173.41 34.7654C173.36 34.9854 173.09 35.2954 172.88 35.3754C172.88 35.3754 167.64 37.0954 161.28 35.4954C152.54 33.3054 147.26 24.6054 149.47 15.8254C151.69 7.01536 160.48 1.75536 169.22 3.95536Z" fill="#120D73"/>
	<path d="M206.87 19.6853C214.66 24.2853 217.19 34.2453 212.59 42.0353C207.99 49.8253 198.09 52.3453 190.3 47.7353C182.51 43.1353 179.97 33.2753 184.57 25.4853C189.17 17.6953 199.07 15.0853 206.87 19.6853ZM193.98 41.5053C198.27 44.0353 203.84 42.6053 206.35 38.3553C208.88 34.0653 207.47 28.4553 203.18 25.9253C198.93 23.4153 193.33 24.8953 190.8 29.1753C188.3 33.4253 189.73 38.9953 193.98 41.5053Z" fill="#120D73"/>
	<path d="M230.73 38.5153C231.05 38.1953 231.6 38.1753 231.95 38.5353L245.02 51.9553C245.37 52.3153 245.33 52.8553 245 53.1753L241.47 56.6153C241.15 56.9353 240.6 56.9553 240.26 56.5953L231.51 47.6153L227.49 51.5353L234.69 58.9253C235.01 59.2453 235 59.8253 234.67 60.1453L231.14 63.5853C230.78 63.9353 230.24 63.8953 229.92 63.5653L222.72 56.1753L218.34 60.4353L227.09 69.4153C227.44 69.7753 227.4 70.3153 227.07 70.6353L223.54 74.0753C223.22 74.3953 222.67 74.4153 222.32 74.0553L209.25 60.6353C208.9 60.2753 208.94 59.7353 209.27 59.4153L230.73 38.5153Z" fill="#120D73"/>
	<path d="M253.87 64.6254C254.26 64.4054 254.8 64.5154 255.02 64.9054L260.48 74.5054C264.8 82.0954 262.15 91.8254 254.6 96.1154C246.97 100.455 237.26 97.7454 232.94 90.1554L227.48 80.5554C227.26 80.1654 227.43 79.6454 227.82 79.4254L253.87 64.6254ZM238.54 86.4554C241.07 90.8954 246.4 92.1353 250.89 89.5854C255.33 87.0553 257 81.8454 254.47 77.3954L252.32 73.6154L236.39 82.6754L238.54 86.4554Z" fill="#120D73"/>
</svg>
