<svg width="102" height="68" viewBox="0 0 102 68" fill="none" 
    xmlns="http://www.w3.org/2000/svg">
    <path d="M88.5105 64.4518C88.5436 63.5054 89.3995 62.7664 90.4254 62.8023L90.4689 61.3853C89.443 61.3495 88.6345 60.5584 88.6614 59.6177C88.6944 58.6712 89.5504 57.9323 90.5763 57.9681L90.6196 56.5571C89.5937 56.5213 88.7852 55.7302 88.8123 54.7835C88.8453 53.837 89.7013 53.0981 90.7272 53.1339L90.7707 51.717C89.7448 51.6812 88.9363 50.8901 88.9634 49.9434C88.9965 48.9969 89.8524 48.258 90.8783 48.2938L90.9216 46.8828C89.8957 46.847 89.0872 46.0559 89.1143 45.1092C89.1473 44.1628 90.0033 43.4238 91.0292 43.4596L91.0727 42.0427C90.0468 42.0069 89.2383 41.2158 89.2654 40.2691C89.2985 39.3226 90.1544 38.5837 91.1803 38.6195L91.2236 37.2085C90.1977 37.1727 89.3892 36.3816 89.4161 35.4409C89.4491 34.4944 90.3051 33.7555 91.331 33.7913L91.3745 32.3744C90.3486 32.3385 89.5401 31.5474 89.5672 30.6008C89.6003 29.6543 90.4562 28.9154 91.4821 28.9512L91.5254 27.5402C90.4995 27.5044 89.691 26.7133 89.7181 25.7666C89.7511 24.8201 90.6071 24.0812 91.633 24.117L91.6765 22.7001C90.6506 22.6643 89.8421 21.8732 89.8692 20.9265C89.9023 19.98 90.7582 19.2411 91.7841 19.2769L91.8274 17.8659C90.8015 17.8301 89.993 17.039 90.0199 16.0983C90.0529 15.1518 90.9088 14.4129 91.9348 14.4487L91.9783 13.0317C90.9524 12.9959 90.1439 12.2048 90.171 11.2581C90.2041 10.3117 91.06 9.57274 92.0859 9.60856L92.1292 8.19758C91.1033 8.16175 90.2948 7.37065 90.3219 6.42398C90.3549 5.47751 91.2108 4.73857 92.2368 4.7744L92.2774 3.4408L11.9277 0.611084L11.8869 1.95064C12.8264 2.06688 13.5347 2.81872 13.5097 3.70588C13.4787 4.59282 12.7195 5.29937 11.7799 5.35596L11.736 6.7848C12.6755 6.90105 13.3838 7.65289 13.3588 8.54004C13.3278 9.42699 12.5686 10.1335 11.6292 10.1842L11.5853 11.613C12.5248 11.7293 13.2331 12.4811 13.2081 13.3683C13.1771 14.2552 12.4179 14.9618 11.4785 15.0124L11.4346 16.4412C12.3741 16.5575 13.0824 17.3093 13.0574 18.1965C13.0264 19.0834 12.2672 19.79 11.3276 19.8466L11.2837 21.2754C12.2232 21.3916 12.9315 22.1435 12.9065 23.0306C12.8755 23.9176 12.1163 24.6241 11.1767 24.6807L11.1328 26.1096C12.0723 26.2258 12.7806 26.9777 12.7556 27.8648C12.7246 28.7517 11.9654 29.4583 11.0258 29.5149L10.9819 30.9437C11.9214 31.06 12.6297 31.8118 12.6047 32.699C12.5737 33.5859 11.8145 34.2925 10.8751 34.3431L10.8312 35.7719C11.7707 35.8882 12.479 36.64 12.454 37.5272C12.423 38.4141 11.6638 39.1207 10.7242 39.1773L10.6803 40.6061C11.6198 40.7224 12.3281 41.4742 12.3031 42.3614C12.2721 43.2483 11.5129 43.9549 10.5733 44.0114L10.5294 45.4403C11.4689 45.5565 12.1772 46.3084 12.1522 47.1955C12.1212 48.0825 11.362 48.789 10.4224 48.8456L10.3785 50.2744C11.318 50.3907 12.0263 51.1425 12.0013 52.0297C11.9703 52.9166 11.2111 53.6232 10.2718 53.6738L10.2278 55.1027C11.1673 55.2189 11.8756 55.9708 11.8506 56.8579C11.8197 57.7448 11.0604 58.4514 10.1211 58.502L10.0771 59.9309C11.0167 60.0471 11.725 60.799 11.6999 61.6861C11.669 62.5731 10.9097 63.2796 9.97017 63.3362L9.92936 64.6758L90.356 67.526L90.3966 66.1924C89.2859 66.1894 88.4774 65.3983 88.5105 64.4518Z" fill="white"/>
    <path d="M93.3381 60.9909L8.85023 60.9254V60.5561C8.85023 57.2563 6.05108 54.3973 2.3328 53.9029L2.17763 53.8434C1.86727 53.6409 1.57482 53.5694 1.22866 53.623L0.798943 53.6885V51.6217L1.22866 51.6872C1.5211 51.7349 1.83743 51.6932 2.12988 51.5502C2.5417 51.3537 2.79833 51.0082 2.81624 50.621C2.82817 50.3351 2.65509 50.0254 2.3328 49.7752C1.89114 49.4238 1.52708 49.4238 1.23463 49.4774L0.798943 49.5489V47.4821L1.22866 47.5536C1.47933 47.5952 1.75985 47.5714 2.01052 47.4702C2.11795 47.4225 2.16569 47.3987 2.21344 47.3749C2.59541 47.1604 2.81624 46.8031 2.81027 46.4278C2.8043 46.1121 2.58944 45.7845 2.22538 45.5522C1.90309 45.3438 1.59869 45.2842 1.22866 45.3438L0.792969 45.4153V43.3544L1.22269 43.4199C1.52708 43.4676 1.84937 43.4259 2.14182 43.277C2.54767 43.0804 2.79237 42.7349 2.81027 42.3537C2.82221 42.0678 2.62525 41.8117 2.46411 41.6509L2.65509 41.3114L2.39845 41.5794L2.18956 41.4305C1.8792 41.222 1.58079 41.1506 1.23463 41.2101L0.798943 41.2816V39.2207L1.22866 39.2863C1.47933 39.328 1.75985 39.3041 2.01052 39.2029C2.10004 39.1671 2.15972 39.1374 2.21344 39.1076C2.58944 38.8931 2.81027 38.5477 2.81027 38.1784C2.81027 37.8687 2.60138 37.5411 2.24925 37.3028C1.83146 37.0229 1.48529 37.0348 1.22866 37.0765L0.792969 37.148V35.0871L1.22269 35.1526C1.53304 35.2003 1.87324 35.1526 2.15972 34.9977C2.54767 34.7952 2.78639 34.4557 2.8043 34.0864C2.8222 33.7469 2.55363 33.4551 2.39249 33.3121C1.92099 32.8952 1.55691 32.8892 1.22866 32.9428L0.792969 33.0143V30.9534L1.22269 31.019C1.55692 31.0726 1.92099 31.013 2.21344 30.8403C2.58347 30.6318 2.8043 30.2863 2.81027 29.923C2.81624 29.5835 2.54767 29.3036 2.39249 29.1606C1.92099 28.7556 1.54498 28.7556 1.23463 28.8032L0.798943 28.8747V26.8138L1.22866 26.8794C1.52707 26.927 1.85534 26.8853 2.14778 26.7364C2.5596 26.5339 2.8043 26.1825 2.81624 25.8013C2.8222 25.5094 2.63719 25.1937 2.3149 24.9495C1.87921 24.616 1.52708 24.6219 1.23463 24.6696L0.798943 24.7411V22.6742L1.22866 22.7457C1.56288 22.7993 1.93293 22.7398 2.22538 22.5611C2.59541 22.3466 2.81624 21.9952 2.81624 21.6259C2.81624 21.3102 2.60138 20.9827 2.24328 20.7504C1.92099 20.5359 1.61063 20.4704 1.24059 20.5359L0.804908 20.6074V18.5465L1.23463 18.6121C1.57482 18.6657 1.93889 18.6061 2.23134 18.4274C2.60138 18.213 2.81624 17.8675 2.82221 17.5042C2.82221 17.1945 2.61332 16.8669 2.26118 16.6286C1.8434 16.3427 1.49724 16.3546 1.24657 16.4023L0.810873 16.4738V14.5141L1.12719 14.4665C4.76788 13.9066 8.84426 10.8272 8.85023 7.54531V7.17603L93.3381 7.24154V7.61083C93.3381 11.1072 97.2951 14.0853 100.852 14.5737C100.852 14.5678 100.906 14.5618 100.954 14.5558L101.371 14.5022L101.383 14.9251V16.5333L100.966 16.4797C100.9 16.4738 100.852 16.4618 100.798 16.4618C100.524 16.4618 100.261 16.5333 100.041 16.6644C99.6705 16.8788 99.4496 17.2242 99.4496 17.5935C99.4496 18.213 100.041 18.7133 100.769 18.7193C100.828 18.7193 100.882 18.7133 100.936 18.7014L101.354 18.6478L101.383 19.0647V20.661L100.966 20.6074C100.9 20.6014 100.852 20.5895 100.798 20.5895C100.524 20.5895 100.261 20.661 100.041 20.7921C99.6705 21.0065 99.4496 21.3519 99.4496 21.7212C99.4496 22.3407 100.041 22.841 100.769 22.847C100.828 22.847 100.882 22.841 100.936 22.8291L101.354 22.7755L101.383 23.1924V24.7887L100.966 24.7351C100.9 24.7291 100.852 24.7172 100.798 24.7172C100.524 24.7172 100.261 24.7887 100.041 24.9197C99.6705 25.1342 99.4496 25.4796 99.4496 25.8489C99.4496 26.522 100.184 27.0461 100.948 26.9568L101.365 26.9032L101.383 27.3201V28.9164L100.966 28.8628C100.9 28.8568 100.852 28.8449 100.798 28.8449C100.524 28.8449 100.261 28.9164 100.041 29.0474C99.6705 29.2619 99.4496 29.6073 99.4496 29.9766C99.4496 30.5961 100.041 31.0964 100.769 31.1023C100.828 31.1023 100.882 31.0964 100.936 31.0845L101.354 31.0309L101.383 31.4478V33.0441L100.966 32.9905C100.9 32.9845 100.852 32.9726 100.798 32.9726C100.524 32.9726 100.261 33.0441 100.041 33.1751C99.6705 33.3896 99.4496 33.735 99.4496 34.1043C99.4496 34.7774 100.184 35.2956 100.948 35.2122L101.365 35.1586L101.383 35.5755V37.1718L100.966 37.1182C100.894 37.1063 100.846 37.1003 100.793 37.1003C100.518 37.1003 100.261 37.1718 100.035 37.3028C99.6645 37.5172 99.4437 37.8627 99.4437 38.232C99.4437 38.8991 100.166 39.4352 100.924 39.3399L101.342 39.2922L101.377 39.7092V41.3054L100.96 41.2518C100.894 41.2459 100.846 41.234 100.793 41.234C100.518 41.234 100.261 41.3054 100.035 41.4365C99.6645 41.6509 99.4437 41.9964 99.4437 42.3656C99.4437 42.9851 100.035 43.4854 100.763 43.4914C100.828 43.4914 100.888 43.4795 100.954 43.4735L101.377 43.414V45.4391L100.96 45.3855C100.894 45.3795 100.846 45.3676 100.793 45.3676C100.518 45.3676 100.255 45.4391 100.035 45.5701C99.6645 45.7845 99.4437 46.13 99.4437 46.4993C99.4437 47.1187 100.035 47.6191 100.763 47.625C100.822 47.625 100.876 47.6191 100.93 47.6072L101.348 47.5536L101.377 47.9705V49.5668L100.96 49.5132C100.894 49.5072 100.846 49.4953 100.793 49.4953C100.518 49.4953 100.255 49.5668 100.035 49.6978C99.6645 49.9122 99.4437 50.2577 99.4437 50.627C99.4437 51.2464 100.035 51.7468 100.763 51.7527C100.822 51.7527 100.876 51.7468 100.93 51.7349L101.348 51.6812L101.377 52.0982V53.7123L100.96 53.6587C100.876 53.6468 100.822 53.6409 100.763 53.6409C100.47 53.6409 100.184 53.7242 99.945 53.891L99.8734 53.9387L99.7898 53.9506C96.0536 54.4807 93.344 57.2742 93.3381 60.5859V60.9909ZM9.58433 60.1808L92.6099 60.2464C92.8009 56.75 95.6836 53.8493 99.6048 53.2597C99.9152 53.0691 100.267 52.9559 100.637 52.9321V52.5211C99.5571 52.4615 98.7036 51.6455 98.7036 50.6627C98.7036 50.0254 99.0617 49.4357 99.6585 49.0962C99.951 48.9235 100.285 48.8222 100.637 48.7984V48.3934C99.5571 48.3338 98.7036 47.5178 98.7036 46.535C98.7036 45.8977 99.0617 45.308 99.6585 44.9685C99.951 44.7958 100.285 44.6886 100.637 44.6648V44.2597C99.5571 44.2002 98.7036 43.3842 98.7036 42.4014C98.7036 41.7641 99.0617 41.1744 99.6585 40.8349C99.951 40.6622 100.285 40.5549 100.637 40.5311V40.1261C99.5571 40.0665 98.7036 39.2505 98.7036 38.2677C98.7036 37.6304 99.0617 37.0407 99.6585 36.7012C99.951 36.5285 100.285 36.4272 100.637 36.4034V35.9984C99.5571 35.9388 98.7036 35.1288 98.7036 34.14C98.7036 33.5027 99.0617 32.919 99.6585 32.5735C99.951 32.4008 100.285 32.2936 100.637 32.2698V31.8647C99.5571 31.8052 98.7036 30.9892 98.7036 30.0064C98.7036 29.3691 99.0617 28.7854 99.6585 28.4399C99.951 28.2672 100.285 28.16 100.637 28.1361V27.7311C99.5571 27.6715 98.7036 26.8555 98.7036 25.8727C98.7036 25.2354 99.0617 24.6517 99.6585 24.3062C99.951 24.1335 100.285 24.0263 100.637 24.0025V23.5975C99.5571 23.5379 98.7036 22.7219 98.7036 21.7391C98.7036 21.1018 99.0617 20.5121 99.6585 20.1726C99.951 19.9999 100.285 19.8927 100.637 19.8688V19.4638C99.5571 19.4042 98.7036 18.5882 98.7036 17.6054C98.7036 16.9681 99.0617 16.3785 99.6585 16.0389C99.951 15.8662 100.285 15.759 100.637 15.7352V15.3004C96.8952 14.7286 92.8546 11.6611 92.598 7.99799L9.59031 7.92056C9.32173 11.4228 5.29907 14.4486 1.56885 15.1515V15.6458C1.96277 15.6577 2.33877 15.7828 2.69091 16.0211C3.25193 16.4023 3.58018 16.9562 3.58018 17.5161C3.58018 18.1534 3.22209 18.7371 2.62525 19.0766C2.3149 19.2613 1.94486 19.3685 1.56289 19.3804V19.7795C1.95083 19.7914 2.3149 19.9105 2.66703 20.1428C3.23402 20.5121 3.57422 21.072 3.57422 21.6319C3.58019 22.2752 3.22208 22.8648 2.61928 23.2103C2.30296 23.4009 1.93889 23.5022 1.55692 23.5141V23.9072C1.9926 23.9191 2.38652 24.062 2.77446 24.3599C3.29371 24.753 3.58616 25.289 3.56825 25.8251C3.55035 26.4803 3.13853 27.0819 2.49395 27.4035C2.2015 27.5524 1.88517 27.6358 1.55692 27.6477V28.0408C1.93292 28.0527 2.39249 28.1719 2.89383 28.6007C3.34145 28.9879 3.58019 29.4584 3.56825 29.9349C3.55632 30.5663 3.19821 31.144 2.60138 31.4776C2.29102 31.6622 1.92696 31.7635 1.55095 31.7754V32.1685C1.93292 32.1804 2.39845 32.2996 2.89979 32.7463C3.34742 33.1453 3.58018 33.6278 3.56228 34.1103C3.53244 34.7535 3.1445 35.3253 2.52379 35.647C2.22538 35.8078 1.89115 35.8971 1.55095 35.9091V36.3081C1.95083 36.32 2.32087 36.4451 2.673 36.6834C3.23403 37.0646 3.56228 37.6245 3.56228 38.1784C3.55631 38.8157 3.19821 39.4054 2.59541 39.7449C2.51782 39.7925 2.42233 39.8342 2.3328 39.87C2.05826 39.9772 1.80162 40.0308 1.55095 40.0427V40.4418C1.92099 40.4537 2.27312 40.5788 2.61331 40.8051C2.673 40.8408 2.69687 40.8587 2.72074 40.8766C2.81027 40.9361 2.85801 40.9659 2.89979 41.0136L2.97142 41.0851C3.38323 41.496 3.58018 41.9308 3.56228 42.3716C3.53244 43.0268 3.13256 43.6105 2.48798 43.9262C2.19553 44.0751 1.87921 44.1585 1.55095 44.1704V44.5695C1.93292 44.5814 2.29102 44.6945 2.63718 44.9149C3.21014 45.2842 3.55631 45.8382 3.56228 46.404C3.57422 47.0592 3.21015 47.6548 2.60138 48.0003C2.53572 48.042 2.45814 48.0777 2.37458 48.1134C2.33281 48.1373 2.30893 48.1432 2.28505 48.1551C2.05229 48.2445 1.80162 48.2981 1.55095 48.304V48.6972C1.99858 48.7091 2.40442 48.8639 2.79833 49.1796C3.31161 49.5846 3.58615 50.1147 3.56228 50.6449C3.53244 51.2941 3.10869 51.8957 2.45814 52.2054C2.17166 52.3484 1.86131 52.4258 1.54499 52.4377V52.8546C1.87921 52.8725 2.2015 52.9738 2.51185 53.1644C6.42112 53.7302 9.38738 56.6964 9.58433 60.1808Z" fill="#190E3F"/>
</svg>
