<svg width="101" height="54" viewBox="0 0 101 54" fill="none" 
    xmlns="http://www.w3.org/2000/svg">
    <path d="M92.9308 53.9908L8.443 53.9253V53.556C8.443 50.2562 5.64386 47.3972 1.92558 46.9028L1.7704 46.8433C1.46005 46.6408 1.1676 46.5693 0.821437 46.6229L0.391716 46.6884V44.6216L0.821437 44.6871C1.11389 44.7348 1.43021 44.6931 1.72266 44.5501C2.13448 44.3536 2.39111 44.0081 2.40902 43.6209C2.42095 43.335 2.24787 43.0253 1.92558 42.7751C1.48393 42.4237 1.11986 42.4237 0.827412 42.4773L0.391716 42.5488V40.482L0.821437 40.5535C1.07211 40.5952 1.35262 40.5713 1.60329 40.4701C1.71072 40.4224 1.75846 40.3986 1.80621 40.3748C2.18818 40.1603 2.40901 39.803 2.40304 39.4277C2.39707 39.112 2.18221 38.7845 1.81814 38.5522C1.49585 38.3437 1.19147 38.2841 0.821437 38.3437L0.385742 38.4152V36.3543L0.815463 36.4198C1.11985 36.4675 1.44214 36.4258 1.73459 36.2769C2.14044 36.0803 2.38514 35.7348 2.40304 35.3536C2.41498 35.0677 2.21803 34.8116 2.05689 34.6508L2.24786 34.3113L1.99123 34.5793L1.78233 34.4304C1.47198 34.2219 1.17358 34.1505 0.827412 34.21L0.391716 34.2815V32.2206L0.821437 32.2862C1.07211 32.3279 1.35262 32.304 1.60329 32.2028C1.69281 32.167 1.75249 32.1373 1.80621 32.1075C2.18221 31.893 2.40304 31.5476 2.40304 31.1783C2.40304 30.8686 2.19415 30.541 1.84202 30.3027C1.42423 30.0228 1.07808 30.0347 0.821437 30.0764L0.385742 30.1479V28.087L0.815463 28.1525C1.12582 28.2002 1.46602 28.1525 1.7525 27.9977C2.14044 27.7951 2.37916 27.4556 2.39707 27.0863C2.41497 26.7468 2.14642 26.455 1.98527 26.312C1.51377 25.8951 1.1497 25.8891 0.821437 25.9427L0.409621 26.0142V23.9533L0.839342 24.0189C1.17357 24.0725 1.53764 24.0129 1.83009 23.8402C2.20012 23.6317 2.42095 23.2862 2.42692 22.9229C2.43289 22.5834 2.16431 22.3035 2.00913 22.1605C1.53763 21.7555 1.16163 21.7555 0.851272 21.8031L0.409621 21.8806V19.8197L0.839342 19.8852C1.13776 19.9329 1.46602 19.8912 1.75847 19.7423C2.17029 19.5398 2.41498 19.1883 2.42692 18.8071C2.43289 18.5153 2.24787 18.1996 1.92558 17.9554C1.48989 17.6218 1.13776 17.6278 0.845316 17.6754L0.409621 17.7469V15.6801L0.839342 15.7516C1.17357 15.8052 1.54361 15.7456 1.83606 15.5669C2.2061 15.3525 2.42692 15.0011 2.42692 14.6318C2.42692 14.3161 2.21207 13.9885 1.85397 13.7562C1.53168 13.5418 1.22131 13.4763 0.851272 13.5418L0.415595 13.6133V11.5524L0.845316 11.6179C1.18551 11.6715 1.54957 11.612 1.84202 11.4333C2.21205 11.2188 2.42693 10.8734 2.4329 10.5101C2.4329 10.2003 2.224 9.87273 1.87187 9.63448C1.45409 9.34858 1.10792 9.36049 0.857246 9.40814L0.421551 9.47962V7.52001L0.737872 7.47236C4.37856 6.91247 8.45493 3.83308 8.4609 0.551173V0.181885L92.9487 0.247404V0.616693C92.9487 4.11302 96.9057 7.09115 100.463 7.57957C100.463 7.57361 100.517 7.56766 100.564 7.5617L100.982 7.50809L100.994 7.93099V9.53918L100.576 9.48557C100.511 9.47962 100.463 9.4677 100.409 9.4677C100.135 9.4677 99.872 9.53918 99.6512 9.67022C99.2811 9.88464 99.0603 10.2301 99.0603 10.5994C99.0603 11.2188 99.6511 11.7192 100.379 11.7251C100.439 11.7251 100.493 11.7192 100.546 11.7073L100.964 11.6537L100.994 12.0706V13.6669L100.576 13.6133C100.511 13.6073 100.463 13.5954 100.409 13.5954C100.135 13.5954 99.872 13.6669 99.6512 13.7979C99.2811 14.0123 99.0603 14.3578 99.0603 14.7271C99.0603 15.3465 99.6511 15.8469 100.379 15.8528C100.439 15.8528 100.493 15.8469 100.546 15.835L100.964 15.7813L100.994 16.1983V17.7946L100.576 17.741C100.511 17.735 100.463 17.7231 100.409 17.7231C100.135 17.7231 99.872 17.7946 99.6512 17.9256C99.2811 18.14 99.0603 18.4855 99.0603 18.8548C99.0603 19.5278 99.7944 20.052 100.558 19.9626L100.976 19.909L100.994 20.326V21.9223L100.576 21.8687C100.511 21.8627 100.463 21.8508 100.409 21.8508C100.135 21.8508 99.872 21.9223 99.6512 22.0533C99.2811 22.2677 99.0603 22.6132 99.0603 22.9825C99.0603 23.6019 99.6511 24.1022 100.379 24.1082C100.439 24.1082 100.493 24.1023 100.546 24.0903L100.964 24.0367L100.994 24.4537V26.0499L100.576 25.9963C100.511 25.9904 100.463 25.9785 100.409 25.9785C100.135 25.9785 99.872 26.0499 99.6512 26.181C99.2811 26.3954 99.0603 26.7409 99.0603 27.1102C99.0603 27.7832 99.7944 28.3014 100.558 28.218L100.976 28.1644L100.994 28.5814V30.1776L100.576 30.124C100.505 30.1121 100.457 30.1062 100.403 30.1062C100.129 30.1062 99.872 30.1776 99.6452 30.3087C99.2751 30.5231 99.0543 30.8686 99.0543 31.2379C99.0543 31.905 99.7765 32.441 100.534 32.3457L100.952 32.2981L100.988 32.715V34.3113L100.57 34.2577C100.505 34.2517 100.457 34.2398 100.403 34.2398C100.129 34.2398 99.872 34.3113 99.6452 34.4423C99.2751 34.6568 99.0543 35.0022 99.0543 35.3715C99.0543 35.991 99.6452 36.4913 100.373 36.4972C100.439 36.4972 100.499 36.4853 100.564 36.4794L100.988 36.4198V38.4449L100.57 38.3913C100.505 38.3854 100.457 38.3735 100.403 38.3735C100.129 38.3735 99.866 38.4449 99.6452 38.576C99.2751 38.7904 99.0543 39.1359 99.0543 39.5052C99.0543 40.1246 99.6452 40.6249 100.373 40.6309C100.433 40.6309 100.487 40.6249 100.54 40.613L100.958 40.5594L100.988 40.9764V42.5726L100.57 42.519C100.505 42.5131 100.457 42.5012 100.403 42.5012C100.129 42.5012 99.866 42.5726 99.6452 42.7037C99.2751 42.9181 99.0543 43.2636 99.0543 43.6329C99.0543 44.2523 99.6452 44.7526 100.373 44.7586C100.433 44.7586 100.487 44.7526 100.54 44.7407L100.958 44.6871L100.988 45.104V46.7182L100.57 46.6646C100.487 46.6527 100.433 46.6467 100.373 46.6467C100.081 46.6467 99.7944 46.7301 99.5556 46.8969L99.484 46.9445L99.4005 46.9565C95.6643 47.4866 92.9547 50.28 92.9487 53.5917L92.9308 53.9908ZM9.17711 53.1807L92.2026 53.2463C92.3936 49.7499 95.2764 46.8492 99.1976 46.2596C99.5079 46.069 99.86 45.9558 100.23 45.932V45.521C99.1498 45.4614 98.2963 44.6454 98.2963 43.6626C98.2963 43.0253 98.6544 42.4356 99.2513 42.0961C99.5437 41.9234 99.8779 41.8221 100.23 41.7983V41.3933C99.1498 41.3337 98.2963 40.5177 98.2963 39.5349C98.2963 38.8976 98.6544 38.3079 99.2513 37.9684C99.5437 37.7957 99.8779 37.6885 100.23 37.6647V37.2596C99.1498 37.2001 98.2963 36.3841 98.2963 35.4013C98.2963 34.764 98.6544 34.1743 99.2513 33.8348C99.5437 33.6621 99.8779 33.5548 100.23 33.531V33.126C99.1498 33.0664 98.2963 32.2504 98.2963 31.2676C98.2963 30.6303 98.6544 30.0406 99.2513 29.7011C99.5437 29.5284 99.8779 29.4272 100.23 29.4033V28.9983C99.1498 28.9387 98.2963 28.1287 98.2963 27.1399C98.2963 26.5026 98.6544 25.9189 99.2513 25.5735C99.5437 25.4007 99.8779 25.2935 100.23 25.2697V24.8647C99.1498 24.8051 98.2963 23.9891 98.2963 23.0063C98.2963 22.369 98.6544 21.7853 99.2513 21.4398C99.5437 21.2671 99.8779 21.1599 100.23 21.136V20.731C99.1498 20.6714 98.2963 19.8554 98.2963 18.8727C98.2963 18.2353 98.6544 17.6516 99.2513 17.3062C99.5437 17.1334 99.8779 17.0262 100.23 17.0024V16.5974C99.1498 16.5378 98.2963 15.7218 98.2963 14.739C98.2963 14.1017 98.6544 13.512 99.2513 13.1725C99.5437 12.9998 99.8779 12.8926 100.23 12.8687V12.4637C99.1498 12.4041 98.2963 11.5881 98.2963 10.6054C98.2963 9.96803 98.6544 9.37836 99.2513 9.03885C99.5437 8.86612 99.8779 8.75891 100.23 8.73508V8.30028C96.4879 7.72847 92.4474 4.661 92.1907 0.997893L9.18308 0.920462C8.91451 4.42275 4.89185 7.44853 1.16164 8.15137V8.64574C1.55555 8.65765 1.93156 8.78273 2.28369 9.02098C2.84471 9.40219 3.17296 9.95612 3.17296 10.516C3.167 11.1533 2.81486 11.737 2.21803 12.0765C1.90767 12.2612 1.53764 12.3684 1.15566 12.3803V12.7794C1.5436 12.7913 1.90768 12.9104 2.25981 13.1427C2.8268 13.512 3.16699 14.0719 3.16699 14.6318C3.17296 15.2751 2.81485 15.8647 2.21205 16.2102C1.89573 16.4008 1.53166 16.5021 1.14969 16.514V16.9071C1.58538 16.919 1.97929 17.0619 2.36723 17.3598C2.88648 17.7529 3.17892 18.2889 3.16102 18.825C3.14311 19.4802 2.7313 20.0818 2.08672 20.4034C1.79427 20.5523 1.47795 20.6357 1.14969 20.6476V21.0407C1.52569 21.0526 1.98527 21.1718 2.48661 21.6006C2.93423 21.9878 3.17295 22.4583 3.16102 22.9348C3.14908 23.5662 2.79098 24.1439 2.19415 24.4775C1.88379 24.6621 1.51974 24.7634 1.14373 24.7753V25.1684C1.52571 25.1803 1.99122 25.2995 2.49256 25.7462C2.94019 26.1453 3.17296 26.6277 3.15506 27.1102C3.12522 27.7534 2.73726 28.3252 2.11656 28.6469C1.81814 28.8077 1.48393 28.897 1.14373 28.909V29.308C1.54361 29.3199 1.91363 29.445 2.26576 29.6833C2.82679 30.0645 3.15506 30.6244 3.15506 31.1783C3.14909 31.8156 2.79099 32.4053 2.18819 32.7448C2.1106 32.7924 2.01511 32.8341 1.92558 32.8699C1.65104 32.9771 1.3944 33.0307 1.14373 33.0426V33.4417C1.51377 33.4536 1.8659 33.5787 2.2061 33.805C2.26578 33.8407 2.28965 33.8586 2.31352 33.8765C2.40305 33.936 2.45079 33.9658 2.49256 34.0135L2.56418 34.085C2.976 34.4959 3.17296 34.9307 3.15506 35.3715C3.12522 36.0267 2.72533 36.6104 2.08075 36.9261C1.7883 37.075 1.47199 37.1584 1.14373 37.1703V37.5694C1.52571 37.5813 1.88379 37.6945 2.22996 37.9148C2.80292 38.2841 3.14909 38.8381 3.15506 39.4039C3.167 40.0591 2.80292 40.6547 2.19415 41.0002C2.1285 41.0419 2.0509 41.0776 1.96735 41.1133C1.92557 41.1372 1.9017 41.1431 1.87783 41.155C1.64506 41.2444 1.3944 41.298 1.14373 41.304V41.6971C1.59136 41.709 1.9972 41.8638 2.39111 42.1795C2.90439 42.5845 3.17893 43.1147 3.15506 43.6448C3.12522 44.294 2.70146 44.8956 2.05091 45.2053C1.76443 45.3483 1.45408 45.4257 1.13776 45.4376V45.8545C1.47199 45.8724 1.79427 45.9737 2.10463 46.1643C6.01389 46.7301 8.98015 49.6963 9.17711 53.1807Z" fill="#190E3F"/>
</svg>
