<svg width="102" height="68" viewBox="0 0 102 68" fill="none" 
    xmlns="http://www.w3.org/2000/svg">
    <path d="M90.74 61.7711C90.707 60.8246 91.5093 60.0278 92.5352 59.9919L92.4798 58.5754C91.4538 58.6112 90.5922 57.8785 90.5533 56.9382C90.5203 55.9917 91.3226 55.1948 92.3485 55.159L92.2933 53.7485C91.2673 53.7843 90.4057 53.0515 90.3667 52.1052C90.3336 51.1588 91.1359 50.3619 92.1618 50.3261L92.1064 48.9096C91.0805 48.9454 90.2188 48.2126 90.1798 47.2664C90.1467 46.3199 90.949 45.5231 91.9749 45.4872L91.9197 44.0767C90.8938 44.1125 90.0321 43.3797 89.9931 42.4335C89.96 41.487 90.7623 40.6901 91.7882 40.6543L91.7328 39.2378C90.7069 39.2736 89.8452 38.5408 89.8062 37.5946C89.7731 36.6481 90.5754 35.8513 91.6013 35.8154L91.5461 34.4049C90.5202 34.4407 89.6585 33.7079 89.6197 32.7676C89.5867 31.8211 90.3889 31.0243 91.4149 30.9885L91.3594 29.572C90.3335 29.6078 89.4718 28.875 89.4328 27.9287C89.3998 26.9823 90.2021 26.1854 91.228 26.1496L91.1727 24.739C90.1468 24.7749 89.2852 24.0421 89.2461 23.0958C89.2131 22.1494 90.0154 21.3525 91.0413 21.3167L90.9859 19.9002C89.9599 19.936 89.0983 19.2032 89.0592 18.257C89.0262 17.3105 89.8285 16.5136 90.8544 16.4778L90.7992 15.0673C89.7732 15.1031 88.9116 14.3703 88.8728 13.43C88.8397 12.4835 89.642 11.6867 90.6679 11.6509L90.6125 10.2343C89.5866 10.2702 88.7249 9.53739 88.6859 8.59112C88.6528 7.64466 89.4551 6.84781 90.481 6.81199L90.4258 5.40142C89.3999 5.43725 88.5382 4.70447 88.4992 3.75821C88.4661 2.81174 89.2684 2.0149 90.2943 1.97907L90.2418 0.645886L9.89044 3.42798L9.94318 4.76711C10.8885 4.81754 11.6475 5.51814 11.6845 6.40488C11.7154 7.29182 11.0074 8.04961 10.074 8.17161L10.1299 9.60003C11.0752 9.65046 11.8342 10.3511 11.8712 11.2378C11.9081 12.1245 11.194 12.8825 10.2605 12.9986L10.3163 14.427C11.2617 14.4774 12.0207 15.178 12.0576 16.0648C12.0886 16.9517 11.3805 17.7095 10.447 17.8255L10.5028 19.254C11.4482 19.3044 12.2072 20.005 12.2441 20.8917C12.2751 21.7787 11.567 22.5365 10.6336 22.6585L10.6895 24.0869C11.6348 24.1373 12.3939 24.8379 12.4308 25.7246C12.4618 26.6116 11.7537 27.3694 10.8203 27.4914L10.8762 28.9198C11.8215 28.9702 12.5805 29.6708 12.6175 30.5576C12.6484 31.4445 11.9404 32.2023 11.007 32.3243L11.0629 33.7527C12.0082 33.8031 12.7672 34.5037 12.8042 35.3905C12.8351 36.2774 12.127 37.0352 11.1935 37.1513L11.2494 38.5797C12.1947 38.6301 12.9537 39.3307 12.9906 40.2174C13.0216 41.1044 12.3135 41.8622 11.3802 41.9842L11.436 43.4126C12.3814 43.463 13.1404 44.1636 13.1773 45.0504C13.2143 45.9371 12.5002 46.6951 11.5669 46.8171L11.6227 48.2455C12.5681 48.2959 13.3271 48.9965 13.364 49.8833C13.395 50.7702 12.6869 51.528 11.7536 51.65L11.8094 53.0784C12.7547 53.1289 13.5138 53.8295 13.5507 54.7162C13.5817 55.6031 12.8736 56.3609 11.94 56.477L11.9959 57.9054C12.9412 57.9558 13.7002 58.6564 13.7372 59.5432C13.7681 60.4301 13.0601 61.1879 12.1265 61.3039L12.1824 62.7324C13.1277 62.7828 13.8867 63.4834 13.9236 64.3701C13.9546 65.2571 13.2465 66.0149 12.3132 66.1369L12.3659 67.476L92.7955 64.709L92.7429 63.3759C91.6348 63.4503 90.7731 62.7175 90.74 61.7711Z" fill="white"/>
    <path d="M93.5391 60.9908L9.05128 60.9253V60.556C9.05128 57.2562 6.25213 54.3972 2.53385 53.9028L2.37867 53.8433C2.06832 53.6408 1.77587 53.5693 1.42971 53.6229L0.999987 53.6884V51.6216L1.42971 51.6871C1.72216 51.7348 2.03848 51.6931 2.33093 51.5501C2.74274 51.3536 2.99938 51.0081 3.01729 50.6209C3.02922 50.335 2.85614 50.0253 2.53385 49.7751C2.09219 49.4237 1.72812 49.4237 1.43568 49.4773L0.999987 49.5488V47.482L1.42971 47.5535C1.68038 47.5952 1.96089 47.5713 2.21156 47.4701C2.31899 47.4224 2.36674 47.3986 2.41448 47.3748C2.79646 47.1603 3.01729 46.803 3.01132 46.4277C3.00535 46.112 2.79049 45.7845 2.42642 45.5522C2.10413 45.3437 1.79974 45.2841 1.42971 45.3437L0.994019 45.4152V43.3543L1.42374 43.4198C1.72812 43.4675 2.05041 43.4258 2.34286 43.2769C2.74871 43.0803 2.99341 42.7348 3.01132 42.3536C3.02325 42.0677 2.8263 41.8116 2.66515 41.6508L2.85614 41.3113L2.61144 41.5793L2.39658 41.4304C2.08622 41.2219 1.78781 41.1505 1.44164 41.21L1.00596 41.2815V39.2206L1.43568 39.2862C1.68635 39.3279 1.96686 39.304 2.21753 39.2028C2.31302 39.167 2.37271 39.1432 2.42642 39.1075C2.80243 38.893 3.02325 38.5476 3.02325 38.1783C3.02325 37.8686 2.81436 37.541 2.46223 37.3027C2.04445 37.0228 1.69828 37.0347 1.44164 37.0764L1.00596 37.1479V35.087L1.43568 35.1525C1.74603 35.2002 2.08622 35.1525 2.37271 34.9977C2.76065 34.7951 2.99938 34.4556 3.01729 34.0863C3.03519 33.7468 2.76662 33.455 2.60547 33.312C2.13397 32.8951 1.7699 32.8891 1.44164 32.9427L1.00596 33.0142V30.9533L1.43568 31.0189C1.7699 31.0725 2.13397 31.0129 2.42642 30.8402C2.79646 30.6317 3.01729 30.2862 3.02325 29.9229C3.02922 29.5834 2.76065 29.3035 2.60547 29.1605C2.13397 28.7555 1.75797 28.7555 1.44761 28.8031L1.01192 28.8746V26.8137L1.44164 26.8793C1.74006 26.9269 2.06832 26.8852 2.36077 26.7363C2.77258 26.5338 3.01729 26.1824 3.02922 25.8012C3.03519 25.5093 2.85017 25.1936 2.52788 24.9494C2.09219 24.6159 1.74006 24.6218 1.44761 24.6695L1.01192 24.741V22.6741L1.44164 22.7456C1.77587 22.7992 2.14591 22.7397 2.43836 22.561C2.80839 22.3465 3.02922 21.9951 3.02922 21.6258C3.02922 21.3101 2.81436 20.9826 2.45626 20.7503C2.13397 20.5358 1.82362 20.4703 1.45358 20.5358L1.01789 20.6073V18.5464L1.44761 18.612C1.79378 18.6775 2.15785 18.612 2.45029 18.4392C2.82033 18.2248 3.03519 17.8793 3.04116 17.516C3.04116 17.2063 2.83227 16.8787 2.48014 16.6404C2.06235 16.3545 1.71619 16.3664 1.46552 16.4141L1.02983 16.4856V14.526L1.34615 14.4783C4.98684 13.9125 9.06322 10.8331 9.06322 7.55117V7.18188L93.551 7.2474V7.61669C93.551 11.113 97.5081 14.0912 101.065 14.5796C101.065 14.5736 101.119 14.5677 101.167 14.5617L101.584 14.5081L101.596 14.931V16.5392L101.179 16.4856C101.113 16.4796 101.065 16.4677 101.011 16.4677C100.737 16.4677 100.474 16.5392 100.253 16.6702C99.8835 16.8846 99.6626 17.2301 99.6626 17.5994C99.6626 18.2188 100.253 18.7192 100.982 18.7251C101.041 18.7251 101.095 18.7192 101.149 18.7073L101.567 18.6537L101.596 19.0706V20.6669L101.179 20.6133C101.113 20.6073 101.065 20.5954 101.011 20.5954C100.737 20.5954 100.474 20.6669 100.253 20.7979C99.8835 21.0123 99.6626 21.3578 99.6626 21.7271C99.6626 22.3465 100.253 22.8469 100.982 22.8528C101.041 22.8528 101.095 22.8469 101.149 22.835L101.567 22.7813L101.596 23.1983V24.7946L101.179 24.741C101.113 24.735 101.065 24.7231 101.011 24.7231C100.737 24.7231 100.474 24.7946 100.253 24.9256C99.8835 25.14 99.6626 25.4855 99.6626 25.8548C99.6626 26.5278 100.397 27.052 101.161 26.9626L101.578 26.909L101.596 27.326V28.9223L101.179 28.8687C101.113 28.8627 101.065 28.8508 101.011 28.8508C100.737 28.8508 100.474 28.9223 100.253 29.0533C99.8835 29.2677 99.6626 29.6132 99.6626 29.9825C99.6626 30.6019 100.253 31.1022 100.982 31.1082C101.041 31.1082 101.095 31.1023 101.149 31.0903L101.567 31.0367L101.596 31.4537V33.0499L101.179 32.9963C101.113 32.9904 101.065 32.9785 101.011 32.9785C100.737 32.9785 100.474 33.0499 100.253 33.181C99.8835 33.3954 99.6626 33.7409 99.6626 34.1102C99.6626 34.7832 100.397 35.3014 101.161 35.218L101.578 35.1644L101.596 35.5814V37.1776L101.179 37.124C101.107 37.1121 101.059 37.1062 101.006 37.1062C100.731 37.1062 100.474 37.1776 100.248 37.3087C99.8775 37.5231 99.6567 37.8686 99.6567 38.2379C99.6567 38.905 100.379 39.441 101.137 39.3457L101.555 39.2981L101.59 39.715V41.3113L101.173 41.2577C101.107 41.2517 101.059 41.2398 101.006 41.2398C100.731 41.2398 100.474 41.3113 100.248 41.4423C99.8775 41.6568 99.6567 42.0022 99.6567 42.3715C99.6567 42.991 100.248 43.4913 100.976 43.4972C101.041 43.4972 101.101 43.4853 101.167 43.4794L101.59 43.4198V45.4449L101.173 45.3913C101.107 45.3854 101.059 45.3735 101.006 45.3735C100.731 45.3735 100.468 45.4449 100.248 45.576C99.8775 45.7904 99.6567 46.1359 99.6567 46.5052C99.6567 47.1246 100.248 47.6249 100.976 47.6309C101.035 47.6309 101.089 47.6249 101.143 47.613L101.561 47.5594L101.59 47.9764V49.5726L101.173 49.519C101.107 49.5131 101.059 49.5012 101.006 49.5012C100.731 49.5012 100.468 49.5726 100.248 49.7037C99.8775 49.9181 99.6567 50.2636 99.6567 50.6329C99.6567 51.2523 100.248 51.7526 100.976 51.7586C101.035 51.7586 101.089 51.7526 101.143 51.7407L101.561 51.6871L101.59 52.104V53.7182L101.173 53.6646C101.089 53.6527 101.035 53.6467 100.976 53.6467C100.683 53.6467 100.397 53.7301 100.158 53.8969L100.074 53.9743L99.9909 53.9862C96.2547 54.5163 93.5451 57.3098 93.5391 60.6215V60.9908ZM9.78538 60.1807L92.811 60.2463C93.002 56.7499 95.8847 53.8492 99.8059 53.2596C100.116 53.069 100.468 52.9558 100.838 52.932V52.521C99.7581 52.4614 98.9046 51.6454 98.9046 50.6626C98.9046 50.0253 99.2627 49.4356 99.8596 49.0961C100.152 48.9234 100.486 48.8221 100.838 48.7983V48.3933C99.7581 48.3337 98.9046 47.5177 98.9046 46.5349C98.9046 45.8976 99.2627 45.3079 99.8596 44.9684C100.152 44.7957 100.486 44.6885 100.838 44.6647V44.2596C99.7581 44.2001 98.9046 43.3841 98.9046 42.4013C98.9046 41.764 99.2627 41.1743 99.8596 40.8348C100.152 40.6621 100.486 40.5548 100.838 40.531V40.126C99.7581 40.0664 98.9046 39.2504 98.9046 38.2676C98.9046 37.6303 99.2627 37.0406 99.8596 36.7011C100.152 36.5284 100.486 36.4272 100.838 36.4033V35.9983C99.7581 35.9387 98.9046 35.1287 98.9046 34.1399C98.9046 33.5026 99.2627 32.9189 99.8596 32.5735C100.152 32.4007 100.486 32.2935 100.838 32.2697V31.8647C99.7581 31.8051 98.9046 30.9891 98.9046 30.0063C98.9046 29.369 99.2627 28.7853 99.8596 28.4398C100.152 28.2671 100.486 28.1599 100.838 28.136V27.731C99.7581 27.6714 98.9046 26.8554 98.9046 25.8727C98.9046 25.2353 99.2627 24.6516 99.8596 24.3062C100.152 24.1334 100.486 24.0262 100.838 24.0024V23.5974C99.7581 23.5378 98.9046 22.7218 98.9046 21.739C98.9046 21.1017 99.2627 20.512 99.8596 20.1725C100.152 19.9998 100.486 19.8926 100.838 19.8687V19.4637C99.7581 19.4041 98.9046 18.5881 98.9046 17.6054C98.9046 16.968 99.2627 16.3784 99.8596 16.0389C100.152 15.8661 100.486 15.7589 100.838 15.7351V15.3003C97.0962 14.7285 93.0557 11.661 92.799 7.99789L9.79135 7.92046C9.52278 11.4227 5.50012 14.4485 1.7699 15.1514V15.6457C2.16381 15.6577 2.53982 15.7827 2.89195 16.021C3.45298 16.4022 3.78123 16.9561 3.78123 17.516C3.78123 18.1533 3.42313 18.737 2.8263 19.0765C2.51595 19.2612 2.14591 19.3684 1.76393 19.3803V19.7794C2.15188 19.7913 2.51595 19.9104 2.86808 20.1427C3.43507 20.512 3.77527 21.0719 3.77527 21.6318C3.78123 22.2751 3.42313 22.8647 2.82033 23.2102C2.50401 23.4008 2.13994 23.5021 1.75797 23.514V23.9071C2.19366 23.919 2.58757 24.0619 2.97551 24.3598C3.50072 24.7588 3.79317 25.2889 3.77527 25.825C3.75736 26.4802 3.34554 27.0818 2.70096 27.4034C2.40852 27.5523 2.09219 27.6357 1.76393 27.6476V28.0407C2.13994 28.0526 2.5995 28.1718 3.10084 28.6006C3.54847 28.9878 3.7872 29.4583 3.77527 29.9348C3.76333 30.5662 3.40523 31.1439 2.80839 31.4775C2.49804 31.6681 2.13397 31.7694 1.75797 31.7813V32.1744C2.13994 32.1863 2.60547 32.3054 3.10681 32.7521C3.55444 33.1512 3.7872 33.6337 3.7693 34.1161C3.73946 34.7594 3.35151 35.3312 2.73081 35.6528C2.43239 35.8137 2.09816 35.903 1.75797 35.9149V36.314C2.15785 36.3259 2.52788 36.451 2.88001 36.6892C3.44104 37.0704 3.7693 37.6303 3.7693 38.1843C3.76333 38.8216 3.40523 39.4112 2.80243 39.7508C2.72484 39.7984 2.62934 39.8401 2.53982 39.8758C2.26528 39.983 2.00864 40.0367 1.75797 40.0486V40.4476C2.128 40.4595 2.48014 40.5846 2.82033 40.811C2.88001 40.8467 2.90389 40.8646 2.92776 40.8824C3.01729 40.942 3.06503 40.9718 3.10681 41.0194L3.17843 41.0909C3.59025 41.5019 3.7872 41.9367 3.7693 42.3775C3.73946 43.0327 3.33958 43.6164 2.695 43.932C2.40255 44.081 2.08622 44.1643 1.75797 44.1763V44.5753C2.13994 44.5872 2.49804 44.7004 2.8442 44.9208C3.41716 45.2901 3.76333 45.844 3.7693 46.4099C3.78123 47.065 3.41716 47.6607 2.80839 48.0061C2.74274 48.0478 2.66515 48.0836 2.5816 48.1193C2.53982 48.1431 2.51595 48.1491 2.49207 48.161C2.25931 48.2503 2.00864 48.304 1.75797 48.3099V48.703C2.20559 48.7149 2.61144 48.8698 3.00535 49.1855C3.51863 49.5905 3.79317 50.1206 3.7693 50.6507C3.73946 51.3 3.3157 51.9015 2.66515 52.2113C2.37867 52.3542 2.06832 52.4316 1.752 52.4436V52.8605C2.08622 52.8784 2.40852 52.9796 2.71887 53.1702C6.62216 53.7301 9.58843 56.6963 9.78538 60.1807Z" fill="#190E3F"/>
</svg>
