<svg width="75" height="61" viewBox="0 0 75 61" fill="none" xmlns="http://www.w3.org/2000/svg">
<path d="M74.8958 32.2522L71.6224 25.0196C71.3717 24.4741 70.7598 24.1791 70.1847 24.3561C66.1592 25.6168 61.7282 23.7073 59.944 19.7629C58.1598 15.8259 59.6418 11.2401 63.2396 9.04302C63.7557 8.73337 63.9548 8.08457 63.7041 7.539L60.6076 0.697144C60.3348 0.0999564 59.6344 -0.16546 59.0372 0.107329L0.697144 26.531C0.0999564 26.8038 -0.16546 27.5042 0.107329 28.1014L3.19648 34.9285C3.44716 35.4741 4.05909 35.769 4.63416 35.5921C8.65964 34.3313 13.0906 36.2409 14.8748 40.1852C16.659 44.1223 15.1771 48.7081 11.5792 50.9051C11.0631 51.2148 10.8641 51.8636 11.1147 52.4092L14.3956 59.6565C14.6684 60.2537 15.3688 60.5191 15.966 60.2463L74.306 33.8226C74.9032 33.5498 75.1613 32.8421 74.8958 32.2522Z" fill="#5452F6"/>
<path d="M39.1656 28.9975C40.6704 27.0267 40.9736 23.7364 39.817 20.4125C39.7608 20.216 39.8338 20.0251 40.0135 19.9465L40.1819 19.8679C40.5469 19.6994 40.7153 19.2615 40.5469 18.8965L40.3335 18.4305C40.1651 18.0656 39.7271 17.8971 39.3622 18.0656L26.8413 23.7364C26.4763 23.9049 26.3079 24.3428 26.4763 24.7078L26.7009 25.2019C26.8694 25.5669 27.3073 25.7353 27.6723 25.5669L27.8407 25.4882C28.026 25.404 28.2113 25.477 28.3236 25.6455C30.0473 28.6774 32.7311 30.6482 35.2072 30.8166C35.4992 30.8391 35.6564 31.1816 35.4655 31.3893C33.9495 33.3377 33.6463 36.6279 34.803 39.9462C34.8591 40.1427 34.7861 40.3336 34.6065 40.4122L34.438 40.4908C34.0731 40.6593 33.9046 41.0972 34.0731 41.4622L34.2977 41.9563C34.4661 42.3213 34.9041 42.4897 35.269 42.3213L47.7674 36.6616C48.1324 36.4931 48.3008 36.0552 48.1324 35.6902L47.9078 35.1961C47.7394 34.8312 47.3014 34.6627 46.9365 34.8312L46.768 34.9098C46.5827 34.994 46.3974 34.921 46.2851 34.7526C44.5614 31.7206 41.8776 29.7498 39.4015 29.5814C39.16 29.5365 39.014 29.2221 39.1656 28.9975ZM44.3088 35.3365C44.4435 35.4937 44.421 35.7239 44.2526 35.8362C44.0673 35.9822 43.8596 36.0777 43.6462 36.1731C42.8601 36.5268 42.1022 36.8693 41.3161 37.2287L40.6367 37.5375L39.9573 37.8463C39.1713 38.2 38.4133 38.5425 37.6272 38.9019C37.4195 38.9973 37.1836 39.104 36.9759 39.1321C36.7681 39.1602 36.5829 39.0254 36.5604 38.8457C36.2965 37.0771 36.5436 35.2579 37.3015 33.6577C37.5261 33.1804 37.7732 32.6863 37.8967 32.1923C37.9472 31.9508 38.2055 31.8329 38.4189 31.9564C38.8737 32.1923 39.4071 32.327 39.918 32.4786C41.6249 32.9615 43.1521 33.9721 44.3088 35.3365ZM37.5767 27.2906C37.3521 27.7678 37.105 28.2619 36.9815 28.756C36.931 28.9975 36.6727 29.1154 36.4593 28.9918C36.0438 28.7729 35.5834 28.6606 35.1174 28.5314C35.0051 28.4865 34.9714 28.3462 35.05 28.2451C35.6396 27.6612 36.2011 27.0323 36.6783 26.3417C37.2342 25.5556 37.7563 24.7527 38.2336 23.933C38.2617 23.8544 38.374 23.8993 38.3852 23.9891C38.3234 25.1233 38.0483 26.2575 37.5767 27.2906Z" fill="#ffffff"/>
</svg>