<svg xmlns="http://www.w3.org/2000/svg" viewBox="0 0 125 151.4">
    <style>
    .st0{display:none}
    * {fill:white}
    </style>
    <g id="Layer_1">
        <path class="st0" d="M13 48.1c.2-.9.3-1.7.5-2.5 1.5-5.1 6-8.7 11.2-8.8 6.4-.1 12.8-.1 19.1 0 1.8 0 3.1 1.4 3.1 3.1 0 1.7-1.4 3.1-3.2 3.1H25.5c-3.2 0-5.7 2.1-6.3 5.2-.1.4-.1.9-.1 1.3v67.3c0 3.9 2.6 6.5 6.5 6.5H99c3.9 0 6.5-2.6 6.5-6.5V49.6c0-3.9-2.7-6.6-6.6-6.6H81c-2 0-3.3-1.4-3.2-3.3.1-1.4 1.2-2.6 2.6-2.8.3 0 .6-.1.9-.1h17.8c6 0 10.8 3.6 12.2 9.2.3 1 .4 2.1.4 3.2v67.7c0 7.1-5.4 12.5-12.5 12.5H25.3c-6.5 0-11.6-4.6-12.4-10.9 0-.1-.1-.3-.1-.4.2-23.4.2-46.7.2-70z"/>
        <path class="st0" d="M58.8 16.1c-1.8 1.8-3.5 3.4-5.1 5.1-2.7 2.7-5.4 5.3-8.1 8-1 1-2.1 1.3-3.4 1-2.5-.6-3.3-3.7-1.5-5.6 2.3-2.3 4.6-4.6 6.9-6.8 3.4-3.3 6.7-6.7 10.1-10 2.1-2 4.8-2.5 7.2-1.3.6.3 1.2.7 1.7 1.2 5.7 5.6 11.4 11.2 17 16.8 1.9 1.9 1.1 5-1.4 5.6-1.4.4-2.5 0-3.6-1-2.8-2.8-5.7-5.6-8.6-8.5-1.5-1.5-2.8-3-4.3-4.4-.1 0-.2.1-.3.1v71.8c0 .5 0 1.1-.1 1.6-.4 1.6-2 2.7-3.5 2.5-1.7-.2-3-1.5-3.1-3.2V17.2c.1-.3.1-.6.1-1.1z"/>
    </g>
    <path d="M84.1 116v6.6c0 1.2 0 2.5-.3 3.7-1 5.2-5.5 8.9-10.8 8.9H12.9c-5.8 0-10.6-4.5-11-10.2V35.4c0-4.1 1.5-7.4 4.9-9.8 2-1.4 4.2-1.9 6.6-1.9h26.8v-8c0-6.4 4.9-11.2 11.3-11.3h59.7c6.3 0 11.2 4.8 11.2 11.2v89.2c0 6.4-4.9 11.2-11.3 11.2h-27zM7.5 79.4v44.2c0 3.8 2.3 6.1 6.1 6.1h58.9c3.8 0 6.1-2.3 6.1-6.1V35.2c0-3.6-2.3-6-5.8-6H13.2c-.6 0-1.3.1-1.9.3-2.4.8-3.9 2.9-3.9 5.7.1 14.7.1 29.5.1 44.2zm76.6 31c.3 0 .5.1.7.1h26.4c.7 0 1.5-.2 2.2-.5 2.4-1.1 3.4-3 3.4-5.6V16c0-3.5-2.3-5.8-5.7-5.8H51.5c-3.4 0-5.7 2.4-5.7 5.8v7.9h26.8c2.4 0 4.6.5 6.6 1.9 3.4 2.3 5 5.6 5 9.6v74.1c-.1.1-.1.5-.1.9z" id="Layer_2"/>
</svg>