<svg width="375" height="729" viewBox="0 0 375 729" fill="none" xmlns="http://www.w3.org/2000/svg">
	<path d="M124.252 233.682C130.599 256.303 147.143 285.875 190.217 292.212C260.658 302.568 320.22 279.259 334.206 332.615C348.192 385.962 425.779 838.735 425.779 838.735H-178.046V621.625V233.682H124.252Z" fill="#170278"/>
	<path d="M169.364 215.853L153.638 189.017C143.859 166.368 118.52 153.992 94.1966 161.027C67.8164 168.657 52.6117 196.228 60.2419 222.609C67.8722 248.989 95.4435 264.194 121.824 256.563C139.532 251.445 152.205 237.329 156.318 220.627L169.364 215.853Z" fill="#3650E8"/>
	<path d="M102.85 62.7171C102.646 62.7171 102.441 62.7264 102.236 62.7264C99.4076 62.4194 96.4578 62.2426 93.3685 62.2426H-178.027C-178.037 62.2426 -178.037 62.2426 -178.037 62.2519V372.999V373.009C-177.739 373.12 -144.826 385.72 -130.906 332.615C-116.92 279.268 -58.9113 302.578 11.5291 292.212C81.9696 281.855 85.5893 197.205 85.5893 194.619C85.5893 194.619 85.5893 193.828 85.5428 192.599C85.6358 192.637 85.5521 188.021 85.1613 185.76C84.9379 184.02 85.5986 181.777 87.683 181.787H102.208C134.581 181.787 161.529 156.197 162.357 123.834C163.232 90.2327 136.247 62.7171 102.85 62.7171Z" fill="#180042"/>
	<path d="M102.854 180.586C102.65 180.586 102.445 180.577 102.24 180.577C99.4115 180.884 96.4618 181.061 93.3724 181.061H-178.023C-178.033 181.061 -178.033 181.061 -178.033 181.052V-129.696V-129.705C-177.735 -129.817 -144.822 -142.416 -130.902 -89.3114C-116.916 -35.9646 -58.9073 -59.2742 11.5331 -48.9082C81.9735 -38.5422 85.5933 46.098 85.5933 48.6942C85.5933 48.6942 85.5933 49.4851 85.5468 50.7134C85.6398 50.6762 85.5561 55.2916 85.1652 57.5527C84.9419 59.2928 85.6026 61.5354 87.687 61.5261H102.212C134.585 61.5261 161.533 87.1154 162.361 119.479C163.236 153.08 136.251 180.586 102.854 180.586Z" fill="#180042"/>
	<path d="M135.512 200.016C139.32 200.016 142.407 196.928 142.407 193.12C142.407 189.312 139.32 186.225 135.512 186.225C131.704 186.225 128.617 189.312 128.617 193.12C128.617 196.928 131.704 200.016 135.512 200.016Z" fill="#170278"/>
	<path d="M141.011 191.287C142.383 191.287 143.496 190.175 143.496 188.803C143.496 187.431 142.383 186.318 141.011 186.318C139.639 186.318 138.527 187.431 138.527 188.803C138.527 190.175 139.639 191.287 141.011 191.287Z" fill="white"/>
</svg>
