<svg width="298" height="724" viewBox="0 0 298 724" fill="none" xmlns="http://www.w3.org/2000/svg">
	<path d="M232.668 180.872C232.538 180.872 226.462 197.277 225.698 198.756C222.302 205.326 218.05 211.458 212.932 216.808C199.058 231.306 177.004 239.318 157.305 241.504C144.697 242.9 131.641 240.425 119.368 244.547C103.828 249.777 96.2909 264.86 92.3734 279.805C78.3877 333.151 0.800858 785.924 0.800858 785.924H534.966V568.806V180.872C534.966 180.872 232.901 180.872 232.668 180.872Z" fill="#180042"/>
	<path d="M277.789 62.1278C241.741 51.706 204.185 70.0465 189.687 103.62L166.387 143.4L185.723 150.462C191.809 175.223 210.596 196.141 236.846 203.725C275.947 215.031 316.815 192.503 328.121 153.393C339.427 114.293 316.89 73.4336 277.789 62.1278Z" fill="#3650E8"/>
	<path d="M215.751 119.913C221.394 119.913 225.968 115.339 225.968 109.696C225.968 104.053 221.394 99.4789 215.751 99.4789C210.109 99.4789 205.534 104.053 205.534 109.696C205.534 115.339 210.109 119.913 215.751 119.913Z" fill="#170278"/>
	<path d="M223.903 106.979C225.938 106.979 227.587 105.329 227.587 103.294C227.587 101.259 225.938 99.6092 223.903 99.6092C221.868 99.6092 220.218 101.259 220.218 103.294C220.218 105.329 221.868 106.979 223.903 106.979Z" fill="white"/>
	<path d="M229.365 73.7779C246.499 73.7779 260.388 59.8882 260.388 42.7544C260.388 25.6205 246.499 11.7308 229.365 11.7308C212.231 11.7308 198.341 25.6205 198.341 42.7544C198.341 59.8882 212.231 73.7779 229.365 73.7779Z" fill="white"/>
	<path d="M289.253 62.1557C306.387 62.1557 320.277 48.266 320.277 31.1321C320.277 13.9983 306.387 0.108566 289.253 0.108566C272.119 0.108566 258.229 13.9983 258.229 31.1321C258.229 48.266 272.119 62.1557 289.253 62.1557Z" fill="white"/>
	<path d="M280.962 91.4764C298.096 91.4764 311.986 77.5867 311.986 60.4529C311.986 43.319 298.096 29.4293 280.962 29.4293C263.828 29.4293 249.939 43.319 249.939 60.4529C249.939 77.5867 263.828 91.4764 280.962 91.4764Z" fill="white"/>
	<path d="M264.566 117.838C281.7 117.838 295.59 103.948 295.59 86.8145C295.59 69.6807 281.7 55.791 264.566 55.791C247.432 55.791 233.543 69.6807 233.543 86.8145C233.543 103.948 247.432 117.838 264.566 117.838Z" fill="white"/>
	<path d="M309.027 115.698C326.161 115.698 340.05 101.808 340.05 84.6744C340.05 67.5405 326.161 53.6508 309.027 53.6508C291.893 53.6508 278.003 67.5405 278.003 84.6744C278.003 101.808 291.893 115.698 309.027 115.698Z" fill="white"/>
	<path d="M305.956 157.395C323.09 157.395 336.98 143.505 336.98 126.371C336.98 109.237 323.09 95.3474 305.956 95.3474C288.822 95.3474 274.932 109.237 274.932 126.371C274.932 143.505 288.822 157.395 305.956 157.395Z" fill="white"/>
</svg>
