<svg width="293" height="272" viewBox="0 0 293 272" fill="none" xmlns="http://www.w3.org/2000/svg">
	<path d="M292.927 178.66C292.927 178.66 266.761 197.084 243.86 176.324C220.97 155.564 214.716 163.65 214.716 163.65C214.716 163.65 211.246 152.549 236.965 159.463C262.685 166.377 241.534 131.231 225.427 101.287C225.427 101.287 221.621 92.6793 230.089 98.2159C238.556 103.753 258.283 141.774 257.511 128.839C256.748 115.905 226.971 81.876 231.633 77.9027C236.286 73.9386 251.621 103.455 258.479 112.23C265.337 121.004 263.206 113.718 263.206 113.718C263.206 113.718 247.173 84.0162 246.224 82.6018C246.224 82.6018 247.694 75.1297 256.72 88.7991C264.89 101.175 268.147 112.574 271.236 110.071C274.326 107.568 263.857 95.2104 263.857 95.2104C263.857 95.2104 267.161 89.2271 275.154 102.152C283.166 115.086 278.718 173.858 292.927 178.66Z" fill="#FF3F1B"/>
	<path d="M0.882736 91.479C0.882736 91.479 27.049 73.0546 49.9491 93.8146C72.8492 114.575 79.093 106.488 79.093 106.488C79.093 106.488 82.5639 117.589 56.8443 110.676C31.1247 103.762 52.2754 138.908 68.3828 168.852C68.3828 168.852 72.1886 177.459 63.7208 171.923C55.2531 166.386 35.526 128.365 36.2984 141.299C37.0614 154.233 66.8381 188.262 62.1762 192.236C57.5236 196.2 42.1886 166.684 35.3306 157.909C28.4727 149.134 30.6036 156.42 30.6036 156.42C30.6036 156.42 46.6365 186.122 47.5856 187.537C47.5856 187.537 46.1154 195.009 37.0893 181.339C28.9193 168.963 25.6625 157.565 22.5732 160.068C19.4839 162.571 29.9522 174.928 29.9522 174.928C29.9522 174.928 26.6489 180.911 18.6557 167.986C10.6439 155.052 15.0918 96.2804 0.882736 91.479Z" fill="#FF3F1B"/>
	<path d="M203.206 86.4449L196.543 71.7426C195.967 70.4585 194.459 69.8909 193.175 70.4771L67.8244 127.248C66.5403 127.825 65.9727 129.333 66.5589 130.617L73.2029 145.282C73.7333 146.454 75.0546 147.087 76.2922 146.705C84.946 143.988 94.456 148.101 98.299 156.569C102.133 165.037 98.9504 174.882 91.2177 179.599C90.1197 180.269 89.6824 181.656 90.2128 182.828L97.2661 198.405C97.8431 199.689 99.3505 200.257 100.635 199.671L225.985 142.9C227.269 142.323 227.837 140.815 227.251 139.531L220.216 124.001C219.685 122.828 218.364 122.195 217.127 122.577C208.473 125.294 198.963 121.181 195.12 112.713C191.286 104.246 194.468 94.4008 202.201 89.6831C203.308 89.0038 203.736 87.6173 203.206 86.4449Z" fill="#FF3F1B"/>
	<path d="M151.72 131.975C155.619 126.857 156.41 118.315 153.414 109.689C153.265 109.187 153.451 108.694 153.926 108.47L154.363 108.275C155.321 107.847 155.74 106.712 155.312 105.753L154.763 104.543C154.335 103.585 153.2 103.166 152.241 103.594L119.729 118.315C118.77 118.743 118.352 119.878 118.78 120.837L119.357 122.121C119.785 123.079 120.92 123.498 121.878 123.07L122.316 122.875C122.79 122.661 123.284 122.847 123.563 123.293C128.029 131.166 135.008 136.274 141.429 136.721C142.192 136.786 142.592 137.67 142.108 138.219C138.181 143.272 137.381 151.814 140.386 160.431C140.535 160.933 140.349 161.426 139.875 161.65L139.437 161.845C138.479 162.273 138.06 163.408 138.488 164.367L139.065 165.651C139.493 166.609 140.628 167.028 141.587 166.6L174.034 151.907C174.993 151.479 175.411 150.344 174.983 149.385L174.406 148.101C173.978 147.143 172.843 146.724 171.885 147.152L171.447 147.347C170.973 147.561 170.48 147.375 170.2 146.929C165.734 139.057 158.755 133.948 152.334 133.501C151.702 133.371 151.329 132.561 151.72 131.975ZM165.064 148.427C165.418 148.836 165.362 149.441 164.915 149.72C164.431 150.102 163.891 150.344 163.352 150.595C161.314 151.516 159.351 152.41 157.313 153.331L155.545 154.131L153.777 154.931C151.739 155.852 149.775 156.746 147.738 157.667C147.198 157.909 146.584 158.188 146.044 158.272C145.504 158.356 145.02 158.002 144.974 157.527C144.285 152.931 144.927 148.222 146.891 144.063C147.468 142.816 148.119 141.541 148.435 140.257C148.556 139.624 149.236 139.317 149.794 139.643C150.976 140.257 152.362 140.61 153.674 140.992C158.094 142.257 162.068 144.882 165.064 148.427ZM147.589 127.546C147.012 128.793 146.36 130.068 146.044 131.352C145.923 131.985 145.244 132.292 144.685 131.966C143.606 131.389 142.415 131.11 141.196 130.766C140.898 130.654 140.815 130.282 141.029 130.021C142.555 128.514 144.016 126.867 145.253 125.08C146.695 123.033 148.045 120.949 149.292 118.827C149.366 118.632 149.664 118.743 149.682 118.976C149.543 121.916 148.826 124.857 147.589 127.546Z" fill="#180042"/>
	<path d="M37.0521 61.9256L33.4045 66.7178C33.1253 67.09 32.6135 67.1272 32.2785 66.8667L28.6309 64.0844C28.2959 63.8332 28.1935 63.3307 28.482 62.9585L39.8064 48.0795C40.0856 47.7073 40.5881 47.6701 40.9324 47.9306L44.58 50.7129C44.915 50.9641 45.0081 51.4666 44.7289 51.8295L41.0813 56.6217L58.9752 70.2445C59.3102 70.4957 59.3846 71.0261 59.1241 71.3611L56.0626 75.381C55.8114 75.716 55.281 75.7904 54.946 75.5298L37.0521 61.9256Z" fill="#FF3F1B"/>
	<path d="M48.9721 39.6862C48.7022 39.3605 48.7115 38.858 49.0651 38.5602L62.3716 27.3009C62.7252 27.0032 63.2277 27.0776 63.4975 27.394L66.4659 30.902C66.7357 31.2184 66.7264 31.7302 66.3728 32.028L57.4677 39.5652L60.8455 43.5478L68.1687 37.3413C68.4944 37.0714 69.0248 37.1086 69.2947 37.4343L72.263 40.9331C72.5608 41.2867 72.4863 41.7891 72.17 42.059L64.8468 48.2656L68.5223 52.6018L77.4274 45.0646C77.781 44.7668 78.2835 44.832 78.5533 45.1576L81.5217 48.6564C81.7915 48.9821 81.7823 49.4846 81.4287 49.7823L68.1222 61.0416C67.7686 61.3394 67.2661 61.2743 66.9963 60.9486L48.9721 39.6862Z" fill="#FF3F1B"/>
	<path d="M85.8951 13.2222C89.0775 11.6775 93.209 11.3146 96.866 12.3009C97.3312 12.4033 97.5918 12.8406 97.4336 13.2873L95.982 17.9213C95.8052 18.3307 95.3865 18.5354 94.977 18.4517C92.8927 17.8189 90.9851 18.1353 89.1334 19.0379C85.0019 21.0385 83.3548 26.1471 85.3741 30.3158C87.3747 34.4473 92.3995 36.2246 96.531 34.224C97.629 33.6936 98.6898 32.9864 99.611 31.9815L98.5502 29.7855L96.1588 30.9393C95.74 31.144 95.2934 30.9858 95.1073 30.6043L93.2928 26.8543C93.0881 26.4356 93.2463 25.9889 93.665 25.7842L101.286 22.09C101.667 21.9039 102.133 22.0993 102.319 22.4809L107.297 32.6608C107.39 32.8469 107.381 33.2284 107.288 33.4145C107.288 33.4145 104.58 37.7693 99.0806 40.4306C91.5341 44.0875 82.5732 41.0354 78.8976 33.4517C75.2221 25.8679 78.3486 16.8791 85.8951 13.2222Z" fill="#FF3F1B"/>
	<path d="M122.139 1.95357C130.448 0.576396 138.2 6.1595 139.577 14.4691C140.954 22.7786 135.399 30.4833 127.089 31.8605C118.78 33.2377 111.084 27.729 109.707 19.4194C108.33 11.1099 113.829 3.33074 122.139 1.95357ZM125.991 25.2166C130.56 24.4629 133.677 20.0987 132.933 15.5764C132.179 11.0075 127.815 7.84376 123.246 8.60679C118.715 9.36051 115.607 13.7526 116.36 18.3214C117.105 22.8438 121.46 25.9703 125.991 25.2166Z" fill="#FF3F1B"/>
	<path d="M150.39 1.08812C150.427 0.669381 150.808 0.325099 151.264 0.371625L168.618 2.10241C169.084 2.14894 169.381 2.55834 169.335 2.97707L168.879 7.54594C168.842 7.96468 168.47 8.30899 168.004 8.26246L156.391 7.10859L155.87 12.3009L165.427 13.25C165.845 13.2873 166.19 13.706 166.143 14.1247L165.687 18.6936C165.641 19.1589 165.231 19.4566 164.813 19.4101L155.256 18.461L154.689 24.1185L166.301 25.2724C166.767 25.3189 167.064 25.7284 167.018 26.1471L166.562 30.716C166.525 31.1347 166.143 31.479 165.687 31.4325L148.333 29.7017C147.868 29.6551 147.57 29.2457 147.617 28.827L150.39 1.08812Z" fill="#FF3F1B"/>
	<path d="M182.548 5.84312C182.697 5.4523 183.144 5.21038 183.535 5.35926L193.156 8.95106C200.768 11.7891 204.695 20.3127 201.866 27.8872C199.009 35.536 190.467 39.407 182.846 36.5689L173.225 32.9771C172.834 32.8282 172.648 32.3537 172.797 31.9629L182.548 5.84312ZM184.642 30.5764C189.099 32.242 193.649 29.9343 195.324 25.4399C196.99 20.9827 195.064 16.265 190.607 14.5993L186.819 13.1849L180.855 29.162L184.642 30.5764Z" fill="#FF3F1B"/>
	<path d="M199.772 39.742L203.718 38.9604C204.164 38.9046 204.574 39.1186 204.667 39.5839C204.816 40.2818 205.02 40.8773 205.979 41.5007C206.965 42.1521 208.659 41.9567 209.813 40.198L220.718 23.6347C220.951 23.2811 221.444 23.1509 221.826 23.4114L226.115 26.2402C226.506 26.4914 226.571 26.9939 226.339 27.3475L215.405 43.948C212.185 48.8332 206.891 49.3822 202.769 46.6744C199.707 44.6552 199.223 41.7147 199.112 40.5888C199.13 40.1794 199.4 39.8537 199.772 39.742Z" fill="#FF3F1B"/>
	<path d="M237.133 35.7687C237.43 35.4709 237.933 35.443 238.268 35.7687L250.597 48.098C250.923 48.4237 250.895 48.9355 250.597 49.2333L247.35 52.4808C247.052 52.7786 246.55 52.8065 246.215 52.4808L237.97 44.2271L234.276 47.9212L241.069 54.714C241.367 55.0118 241.367 55.5515 241.069 55.8493L237.821 59.0968C237.496 59.4225 236.984 59.3946 236.686 59.0968L229.893 52.304L225.873 56.3238L234.127 64.5775C234.453 64.9032 234.425 65.415 234.127 65.7128L230.88 68.9603C230.582 69.258 230.079 69.286 229.744 68.9603L217.415 56.6309C217.089 56.3052 217.117 55.7934 217.415 55.4957L237.133 35.7687Z" fill="#FF3F1B"/>
	<path d="M44.4218 203.58C44.5521 203.357 44.822 203.338 44.9801 203.562L46.348 205.507C46.4318 205.627 46.4131 205.786 46.3666 205.869L42.7376 212.039L42.8027 212.123L49.8281 210.773C49.9212 210.755 50.0794 210.792 50.1631 210.913L51.531 212.858C51.6892 213.081 51.5775 213.323 51.3263 213.369L38.2711 215.714C38.1501 215.733 38.0198 215.696 37.9361 215.575L37.8337 215.426C37.75 215.305 37.7593 215.175 37.8151 215.063L44.4218 203.58Z" fill="#FF3F1B"/>
	<path d="M57.049 218.951C59.4311 221.612 59.1985 225.66 56.5372 228.042C53.8759 230.424 49.8561 230.192 47.4646 227.53C45.0825 224.869 45.2965 220.859 47.9578 218.477C50.6191 216.094 54.6575 216.29 57.049 218.951ZM49.5955 225.632C50.9076 227.093 53.178 227.223 54.6296 225.921C56.0905 224.609 56.2301 222.329 54.9181 220.859C53.6154 219.407 51.3356 219.295 49.8747 220.607C48.4138 221.91 48.2928 224.181 49.5955 225.632Z" fill="#FF3F1B"/>
	<path d="M67.7965 229.513C70.5043 231.848 70.7835 235.896 68.4479 238.594C66.1123 241.302 62.0924 241.581 59.3846 239.236C56.6768 236.901 56.3883 232.89 58.7239 230.192C61.0595 227.493 65.098 227.177 67.7965 229.513ZM61.255 237.078C62.7438 238.362 65.0143 238.194 66.2798 236.724C67.5639 235.235 67.415 232.955 65.9262 231.671C64.456 230.396 62.1762 230.573 60.8827 232.062C59.6172 233.542 59.7847 235.812 61.255 237.078Z" fill="#FF3F1B"/>
	<path d="M74.9708 235.998C75.0732 235.849 75.2779 235.794 75.4454 235.905L79.8654 238.901C81.6427 240.102 82.1172 242.521 80.9262 244.28C80.0049 245.638 78.3579 246.122 76.7202 245.769L76.2084 250.896C76.1805 251.156 75.92 251.324 75.6687 251.156L73.7053 249.826C73.5843 249.742 73.5471 249.612 73.5564 249.537L74.245 244.289L73.2214 243.601L70.6718 247.369C70.5695 247.518 70.3461 247.565 70.1972 247.462L68.4386 246.271C68.2804 246.16 68.2432 245.946 68.3455 245.797L74.9708 235.998ZM76.683 243.191C77.2878 243.601 78.1904 243.387 78.6092 242.772C79.0279 242.149 78.8511 241.302 78.2463 240.883L76.0595 239.404L74.4963 241.712L76.683 243.191Z" fill="#FF3F1B"/>
	<path d="M90.7618 245.592C90.8362 245.434 91.0409 245.369 91.2084 245.443L91.6178 245.629L95.2283 254.841L95.2469 254.851L97.8989 249.091C97.9733 248.932 98.1687 248.839 98.3455 248.923L100.29 249.816C100.448 249.891 100.532 250.105 100.458 250.263L95.433 261.187C95.3585 261.346 95.1538 261.411 94.9863 261.336L94.7258 261.215C94.6793 261.197 94.5676 261.085 94.549 261.039L91.106 251.65L91.0874 251.64L88.3052 257.698C88.2307 257.856 88.0353 257.949 87.8585 257.865L85.923 256.972C85.7648 256.898 85.6811 256.684 85.7555 256.525L90.7618 245.592Z" fill="#FF3F1B"/>
	<path d="M104.096 251.668C104.152 251.501 104.357 251.398 104.524 251.445L106.618 252.115C106.804 252.171 106.888 252.375 106.841 252.543L104.636 259.429C104.254 260.62 104.831 261.857 106.041 262.239C107.269 262.63 108.47 261.969 108.851 260.778L111.056 253.892C111.112 253.725 111.298 253.613 111.484 253.669L113.578 254.339C113.746 254.395 113.848 254.599 113.801 254.767L111.559 261.792C110.731 264.379 107.874 265.821 105.185 264.965C102.514 264.109 101.035 261.28 101.863 258.694L104.096 251.668Z" fill="#FF3F1B"/>
	<path d="M121.274 263.653L121.553 262.053C121.59 261.857 121.748 261.746 121.944 261.774L125.973 262.472C126.168 262.509 126.28 262.667 126.252 262.862L125.973 264.463C125.945 264.64 125.777 264.751 125.582 264.723L121.553 264.026C121.357 263.988 121.236 263.821 121.274 263.653Z" fill="#FF3F1B"/>
	<path d="M134.599 258.647C134.496 258.414 134.654 258.182 134.924 258.191L137.297 258.284C137.437 258.293 137.558 258.405 137.595 258.489L140.293 265.114H140.405L143.597 258.712C143.634 258.628 143.764 258.526 143.904 258.526L146.277 258.619C146.547 258.628 146.677 258.87 146.565 259.094L140.498 270.893C140.442 270.995 140.331 271.079 140.191 271.079L140.014 271.07C139.875 271.06 139.772 270.967 139.717 270.865L134.599 258.647Z" fill="#FF3F1B"/>
	<path d="M154.475 257.968C158.038 257.689 161.109 260.341 161.379 263.895C161.658 267.459 159.025 270.511 155.461 270.781C151.897 271.06 148.854 268.445 148.575 264.882C148.305 261.327 150.911 258.238 154.475 257.968ZM155.247 267.934C157.201 267.785 158.681 266.054 158.532 264.119C158.383 262.164 156.652 260.666 154.698 260.815C152.753 260.964 151.283 262.713 151.432 264.668C151.571 266.612 153.302 268.083 155.247 267.934Z" fill="#FF3F1B"/>
	<path d="M169.363 255.846C172.862 255.12 176.249 257.354 176.975 260.852C177.7 264.351 175.476 267.71 171.978 268.446C168.479 269.181 165.12 266.966 164.394 263.467C163.668 259.968 165.864 256.572 169.363 255.846ZM171.401 265.645C173.327 265.245 174.574 263.346 174.174 261.439C173.774 259.513 171.866 258.247 169.949 258.647C168.042 259.047 166.795 260.964 167.195 262.89C167.595 264.789 169.493 266.035 171.401 265.645Z" fill="#FF3F1B"/>
	<path d="M178.873 254.078C178.817 253.911 178.901 253.706 179.087 253.65L184.149 251.947C186.177 251.268 188.392 252.347 189.071 254.367C189.592 255.921 188.988 257.53 187.713 258.61L191.481 262.137C191.677 262.313 191.649 262.63 191.36 262.723L189.109 263.476C188.969 263.523 188.839 263.467 188.783 263.411L185.024 259.68L183.851 260.071L185.303 264.388C185.359 264.556 185.256 264.761 185.089 264.816L183.069 265.496C182.883 265.561 182.697 265.449 182.641 265.282L178.873 254.078ZM185.628 257.084C186.326 256.851 186.698 256.004 186.457 255.297C186.215 254.59 185.433 254.208 184.735 254.441L182.232 255.288L183.116 257.931L185.628 257.084Z" fill="#FF3F1B"/>
	<path d="M200.368 257.047L200.442 255.344C200.461 255.074 200.787 254.953 200.935 254.971C201.019 254.971 202.592 255.232 203.643 254.692C204.276 254.367 204.537 253.734 204.248 253.176C203.904 252.506 203.085 252.282 201.792 252.403C200.145 252.561 197.883 252.375 196.906 250.468C196.097 248.895 196.515 246.681 198.963 245.424C200.619 244.578 202.322 244.773 202.973 244.875C203.225 244.885 203.336 245.192 203.327 245.331L203.141 246.969C203.122 247.202 202.908 247.49 202.703 247.453C202.517 247.444 200.908 247.164 199.94 247.667C199.363 247.955 199.13 248.56 199.354 248.988C199.651 249.574 200.359 249.779 201.875 249.64C203.364 249.5 205.839 249.463 206.947 251.622C207.784 253.259 207.216 255.641 204.881 256.833C202.815 257.893 201.233 257.614 200.675 257.437C200.433 257.372 200.349 257.335 200.368 257.047Z" fill="#FF3F1B"/>
	<path d="M208.547 243.256L206.388 244.615C206.221 244.717 206.016 244.661 205.923 244.512L204.881 242.865C204.788 242.717 204.825 242.503 204.983 242.4L211.692 238.166C211.86 238.064 212.065 238.12 212.158 238.269L213.2 239.916C213.293 240.065 213.256 240.279 213.097 240.381L210.939 241.739L216.029 249.807C216.122 249.956 216.075 250.179 215.926 250.272L214.112 251.417C213.963 251.51 213.739 251.463 213.646 251.315L208.547 243.256Z" fill="#FF3F1B"/>
	<path d="M214.623 236.547C214.512 236.408 214.53 236.194 214.679 236.073L218.894 232.788C220.588 231.467 223.035 231.764 224.338 233.439C225.343 234.733 225.296 236.445 224.459 237.896L229.177 239.972C229.419 240.074 229.493 240.381 229.251 240.567L227.372 242.028C227.26 242.112 227.12 242.112 227.046 242.075L222.263 239.795L221.286 240.549L224.087 244.14C224.198 244.28 224.171 244.503 224.031 244.615L222.356 245.918C222.198 246.039 221.993 246.001 221.881 245.862L214.623 236.547ZM222.002 237.152C222.579 236.705 222.654 235.784 222.198 235.189C221.733 234.593 220.867 234.5 220.29 234.947L218.206 236.575L219.918 238.771L222.002 237.152Z" fill="#FF3F1B"/>
	<path d="M231.81 237.841L227.455 225.316C227.418 225.204 227.446 225.046 227.539 224.962L227.669 224.841C227.762 224.758 227.911 224.73 228.023 224.767L240.408 229.503C240.65 229.596 240.706 229.857 240.511 230.052L239.087 231.429C238.854 231.653 238.677 231.681 238.324 231.541L236.881 230.973L233.392 234.36L233.922 235.831C234.006 236.045 234.015 236.333 233.755 236.584L232.341 237.952C232.154 238.148 231.894 238.083 231.81 237.841ZM234.416 229.987L231.391 228.815L231.382 228.824L232.471 231.876L234.416 229.987Z" fill="#FF3F1B"/>
	<path d="M234.034 219.193C233.857 219.044 233.82 218.784 233.978 218.588L235.309 216.978C235.458 216.802 235.737 216.774 235.914 216.922L239.533 219.919L238.249 213.712C238.221 213.601 238.259 213.424 238.324 213.34L239.757 211.609C239.971 211.349 240.39 211.46 240.473 211.786L241.841 218.346L249.313 218.616C249.648 218.635 249.825 219.035 249.602 219.295L248.029 221.194C247.945 221.287 247.797 221.37 247.731 221.361L240.78 220.961L244.884 224.357C245.061 224.506 245.089 224.785 244.94 224.962L243.609 226.572C243.451 226.767 243.181 226.777 243.004 226.628L234.034 219.193Z" fill="#FF3F1B"/>
	<path d="M250.476 215.192L249.713 213.666C249.602 213.414 249.816 213.154 249.965 213.098C250.03 213.061 251.537 212.512 252.189 211.535C252.589 210.939 252.505 210.26 251.984 209.916C251.36 209.497 250.532 209.702 249.462 210.446C248.104 211.386 246.038 212.326 244.251 211.135C242.781 210.148 242.064 208.017 243.591 205.728C244.623 204.184 246.205 203.523 246.829 203.3C247.052 203.188 247.303 203.402 247.359 203.532L247.992 205.058C248.085 205.272 248.038 205.626 247.843 205.691C247.676 205.775 246.14 206.315 245.535 207.217C245.182 207.748 245.265 208.39 245.666 208.66C246.215 209.032 246.931 208.864 248.187 208.008C249.425 207.161 251.565 205.924 253.584 207.273C255.11 208.297 255.771 210.651 254.31 212.838C253.017 214.764 251.5 215.303 250.932 215.415C250.69 215.443 250.607 215.452 250.476 215.192Z" fill="#FF3F1B"/>
</svg>
