<svg xmlns="http://www.w3.org/2000/svg" viewBox="0 0 125 151.4">
    <style>* {fill:white}</style>
    <path d="M13 48.1c.2-.9.3-1.7.5-2.5 1.5-5.1 6-8.7 11.2-8.8 6.4-.1 12.8-.1 19.1 0 1.8 0 3.1 1.4 3.1 3.1 0 1.7-1.4 3.1-3.2 3.1H25.5c-3.2 0-5.7 2.1-6.3 5.2-.1.4-.1.9-.1 1.3v67.3c0 3.9 2.6 6.5 6.5 6.5H99c3.9 0 6.5-2.6 6.5-6.5V49.6c0-3.9-2.7-6.6-6.6-6.6H81c-2 0-3.3-1.4-3.2-3.3.1-1.4 1.2-2.6 2.6-2.8.3 0 .6-.1.9-.1h17.8c6 0 10.8 3.6 12.2 9.2.3 1 .4 2.1.4 3.2v67.7c0 7.1-5.4 12.5-12.5 12.5H25.3c-6.5 0-11.6-4.6-12.4-10.9 0-.1-.1-.3-.1-.4.2-23.4.2-46.7.2-70z"/>
    <path d="M58.8 16.1c-1.8 1.8-3.5 3.4-5.1 5.1-2.7 2.7-5.4 5.3-8.1 8-1 1-2.1 1.3-3.4 1-2.5-.6-3.3-3.7-1.5-5.6 2.3-2.3 4.6-4.6 6.9-6.8 3.4-3.3 6.7-6.7 10.1-10 2.1-2 4.8-2.5 7.2-1.3.6.3 1.2.7 1.7 1.2 5.7 5.6 11.4 11.2 17 16.8 1.9 1.9 1.1 5-1.4 5.6-1.4.4-2.5 0-3.6-1-2.8-2.8-5.7-5.6-8.6-8.5-1.5-1.5-2.8-3-4.3-4.4-.1 0-.2.1-.3.1v71.8c0 .5 0 1.1-.1 1.6-.4 1.6-2 2.7-3.5 2.5-1.7-.2-3-1.5-3.1-3.2V17.2c.1-.3.1-.6.1-1.1z"/>
</svg>