<svg width="199" height="65" viewBox="0 0 199 65" fill="none" xmlns="http://www.w3.org/2000/svg">
	<path d="M8.60936 49.8583L5.18743 53.9519C4.9242 54.2696 4.47944 54.2787 4.18898 54.0427L1.06658 51.4376C0.776126 51.2016 0.71259 50.7569 0.975816 50.4392L11.5956 37.7317C11.8588 37.4141 12.3036 37.405 12.5941 37.641L15.7165 40.246C16.0069 40.482 16.0705 40.9268 15.8072 41.2444L12.3853 45.3381L27.6615 58.109C27.9519 58.345 27.9882 58.817 27.7522 59.1075L24.884 62.5385C24.648 62.829 24.176 62.8653 23.8855 62.6293L8.60936 49.8583Z" fill="#180042"/>
	<path d="M20.0279 30.6791C19.801 30.3795 19.8282 29.9348 20.155 29.6897L32.3723 20.259C32.699 20.0048 33.1347 20.0956 33.3707 20.3861L35.8577 23.6083C36.0847 23.9078 36.0574 24.3526 35.7307 24.5977L27.5525 30.906L30.3754 34.5639L37.1103 29.372C37.4099 29.1451 37.8728 29.2087 38.0997 29.4991L40.5867 32.7214C40.8409 33.0481 40.7501 33.4838 40.4597 33.7107L33.7247 38.9026L36.8017 42.8873L44.9799 36.579C45.3066 36.3248 45.7423 36.4156 45.9692 36.7061L48.4563 39.9283C48.6832 40.2278 48.656 40.6726 48.3292 40.9177L36.1119 50.3484C35.7851 50.6026 35.3494 50.5118 35.1225 50.2213L20.0279 30.6791Z" fill="#180042"/>
	<path d="M53.7572 8.75875C56.6346 7.52431 60.3016 7.37 63.4966 8.3866C63.905 8.49552 64.1229 8.88582 63.9595 9.2852L62.489 13.3244C62.3166 13.6783 61.9444 13.8417 61.5814 13.76C59.766 13.1247 58.0687 13.3244 56.3895 14.0414C52.6589 15.648 50.9979 20.0956 52.6136 23.8625C54.2201 27.593 58.5951 29.3721 62.3257 27.7655C63.315 27.3389 64.2863 26.758 65.1395 25.9047L64.2863 23.9169L62.126 24.8428C61.7538 25.0061 61.3545 24.8518 61.2092 24.5069L59.7479 21.1122C59.5845 20.731 59.7388 20.3407 60.12 20.1773L67.0093 17.2183C67.3542 17.0731 67.7626 17.2637 67.9079 17.6086L71.9016 26.8124C71.9743 26.9849 71.9561 27.3207 71.8653 27.475C71.8653 27.475 69.2966 31.2146 64.3226 33.3568C57.5059 36.2885 49.6999 33.2297 46.75 26.3767C43.8182 19.5238 46.9406 11.6815 53.7572 8.75875Z" fill="#180042"/>
	<path d="M86.27 0.235685C93.6766 -0.64476 100.312 4.6016 101.192 12.0082C102.073 19.4149 96.8535 26.0046 89.4469 26.8941C82.0403 27.7745 75.4505 22.5917 74.5701 15.1851C73.6896 7.78754 78.8634 1.12521 86.27 0.235685ZM88.748 20.967C92.8234 20.4768 95.7552 16.7463 95.2742 12.7162C94.784 8.64076 91.0535 5.67266 86.978 6.16281C82.9389 6.64387 80.0161 10.4107 80.4972 14.4862C80.9783 18.5163 84.7088 21.4571 88.748 20.967Z" fill="#180042"/>
	<path d="M111.295 0.607827C111.349 0.23568 111.694 -0.0547764 112.103 0.00876087L127.379 2.23257C127.787 2.2961 128.032 2.66825 127.978 3.03132L127.397 7.05232C127.342 7.42447 126.997 7.70585 126.589 7.65139L116.369 6.1628L115.706 10.7375L124.12 11.9628C124.492 12.0173 124.774 12.3985 124.719 12.7616L124.129 16.7826C124.066 17.1911 123.694 17.4361 123.33 17.3817L114.916 16.1563L114.19 21.1394L124.411 22.628C124.819 22.6916 125.064 23.0637 125.01 23.4268L124.429 27.4478C124.374 27.8199 124.029 28.1013 123.621 28.0469L108.345 25.823C107.936 25.7686 107.691 25.3874 107.746 25.0243L111.295 0.607827Z" fill="#180042"/>
	<path d="M139.569 6.10833C139.714 5.76342 140.122 5.57281 140.467 5.71803L148.836 9.2852C155.453 12.1081 158.585 19.8052 155.771 26.3858C152.939 33.0391 145.224 36.1161 138.598 33.2932L130.229 29.726C129.884 29.5808 129.739 29.1542 129.893 28.8093L139.569 6.10833ZM140.422 28.0741C144.298 29.726 148.41 27.8744 150.08 23.9623C151.732 20.0865 150.216 15.8386 146.34 14.1866L143.045 12.7797L137.127 26.6763L140.422 28.0741Z" fill="#180042"/>
	<path d="M153.429 36.7787L156.951 36.2432C157.341 36.2069 157.695 36.4156 157.768 36.8331C157.867 37.4594 158.031 37.995 158.848 38.585C159.692 39.2022 161.199 39.0933 162.297 37.5865L172.608 23.3723C172.826 23.0728 173.262 22.9729 173.597 23.218L177.283 25.8866C177.618 26.1317 177.655 26.5764 177.437 26.876L167.098 41.1174C164.058 45.3108 159.347 45.5831 155.816 43.0144C153.193 41.1083 152.884 38.4851 152.83 37.4867C152.848 37.1418 153.093 36.8604 153.429 36.7787Z" fill="#180042"/>
	<path d="M186.632 34.7637C186.904 34.5095 187.358 34.5095 187.63 34.809L198.041 46.2094C198.313 46.509 198.268 46.9628 197.996 47.2079L194.991 49.9491C194.719 50.2032 194.265 50.2032 193.993 49.9037L187.031 42.2792L183.618 45.3925L189.355 51.6736C189.609 51.9459 189.581 52.427 189.309 52.6721L186.305 55.4133C186.005 55.6856 185.551 55.6402 185.306 55.3679L179.57 49.0868L175.848 52.4815L182.81 60.1059C183.082 60.4055 183.037 60.8593 182.765 61.1044L179.76 63.8456C179.488 64.0997 179.034 64.0997 178.762 63.8002L168.351 52.3998C168.079 52.1002 168.124 51.6464 168.396 51.4013L186.632 34.7637Z" fill="#180042"/>
</svg>
