<svg width="54" height="60" viewBox="0 0 54 60" fill="none" xmlns="http://www.w3.org/2000/svg">
  <path d="M31.5232 27.0901C35.1698 22.3091 35.9064 14.3235 33.0997 6.27156C32.9597 5.80009 33.1365 5.33598 33.5785 5.13708L33.9837 4.95291C34.8751 4.54773 35.2729 3.48692 34.8677 2.59554L34.352 1.46105C33.9469 0.569671 32.8861 0.171867 31.9947 0.57704L1.6288 14.3308C0.737415 14.736 0.339606 15.7968 0.744779 16.6882L1.28992 17.889C1.69509 18.7804 2.75591 19.1782 3.64729 18.773L4.05246 18.5888C4.49447 18.3899 4.95858 18.5594 5.22379 18.9793C9.40075 26.3387 15.913 31.105 21.9096 31.5249C22.6241 31.5838 22.9998 32.4089 22.5431 32.9172C18.8744 37.6393 18.1304 45.6176 20.9371 53.6695C21.0771 54.1409 20.9003 54.605 20.4583 54.8039L20.0531 54.9881C19.1617 55.3933 18.7639 56.4541 19.1691 57.3455L19.7142 58.5463C20.1194 59.4376 21.1802 59.8354 22.0716 59.4303L52.3859 45.706C53.2773 45.3008 53.6751 44.24 53.27 43.3486L52.7248 42.1478C52.3196 41.2564 51.2588 40.8586 50.3674 41.2638L49.9623 41.448C49.5203 41.6469 49.0561 41.4774 48.7909 41.0575C44.614 33.6981 38.1017 28.9318 32.1052 28.5119C31.5011 28.394 31.1622 27.6352 31.5232 27.0901ZM43.9878 42.4646C44.3193 42.8476 44.2604 43.4075 43.8478 43.6727C43.3985 44.0263 42.8902 44.2621 42.3818 44.4904C40.4812 45.3524 38.6395 46.1848 36.7389 47.0467L35.0887 47.7908L33.4386 48.5348C31.5379 49.3967 29.6962 50.2292 27.7956 51.0911C27.2873 51.3195 26.7201 51.5773 26.2191 51.651C25.7182 51.7246 25.2614 51.3931 25.2172 50.9585C24.569 46.6636 25.1804 42.2657 27.0074 38.376C27.5525 37.2121 28.1566 36.0186 28.4513 34.8179C28.5691 34.2285 29.2027 33.9412 29.7183 34.2432C30.816 34.8179 32.1125 35.142 33.3502 35.503C37.4829 36.6964 41.1884 39.1495 43.9878 42.4646ZM27.663 22.95C27.1179 24.1139 26.5138 25.3073 26.2191 26.5081C26.1013 27.0975 25.4677 27.3848 24.952 27.0827C23.9428 26.545 22.8304 26.2871 21.6885 25.963C21.4086 25.8598 21.3349 25.5136 21.5265 25.2705C22.9483 23.8634 24.3185 22.3238 25.4751 20.6515C26.8232 18.7435 28.0829 16.7913 29.2542 14.8097C29.3205 14.6255 29.6005 14.7286 29.6226 14.9496C29.4826 17.6901 28.8196 20.4379 27.663 22.95Z" fill="#14043F"/>
</svg>
